# Blender v3.1.2 OBJ File: 'hex.blend'
# www.blender.org
mtllib hex2.mtl
o Cylinder_Cylinder.005
v 0.000000 0.100704 -1.029322
v -0.000000 0.513127 -0.957227
v 0.901238 0.100704 -0.514661
v 0.828983 0.513127 -0.478613
v 0.901238 0.100704 0.514661
v 0.828983 0.513127 0.478614
v -0.000000 0.100704 1.029322
v -0.000000 0.513127 0.957227
v -0.901238 0.100704 0.514661
v -0.828983 0.513127 0.478613
v -0.901238 0.100704 -0.514661
v -0.828983 0.513127 -0.478613
v 0.866025 0.500000 -0.500000
v 0.000000 0.500000 -1.000000
v 0.866025 0.500000 0.500000
v -0.000000 0.500000 1.000000
v -0.866025 0.500000 0.500000
v -0.866025 0.500000 -0.500000
vt 1.000000 0.500000
vt 1.000000 1.000000
vt 0.833333 1.000000
vt 0.833333 0.500000
vt 0.666667 1.000000
vt 0.666667 0.500000
vt 0.500000 1.000000
vt 0.500000 0.500000
vt 0.333333 1.000000
vt 0.333333 0.500000
vt 0.453414 0.367441
vt 0.250000 0.484882
vt 0.046586 0.367441
vt 0.046586 0.132559
vt 0.250000 0.015118
vt 0.453414 0.132559
vt 0.166667 1.000000
vt 0.166667 0.500000
vt -0.000000 1.000000
vt -0.000000 0.500000
vt 0.750000 0.490000
vt 0.957846 0.370000
vt 0.957846 0.130000
vt 0.750000 0.010000
vt 0.542154 0.130000
vt 0.542154 0.370000
vt 0.457846 0.370000
vt 0.250000 0.490000
vt 0.457846 0.130000
vt 0.250000 0.010000
vt 0.042154 0.130000
vt 0.042154 0.370000
vn 0.4967 0.0695 -0.8651
vn 0.9961 0.0878 0.0000
vn 0.4967 0.0695 0.8651
vn -0.4967 0.0695 0.8651
vn 0.0000 1.0000 -0.0000
vn -0.9961 0.0878 0.0000
vn -0.4967 0.0695 -0.8651
vn 0.0000 -1.0000 -0.0000
vn 0.1670 0.9426 -0.2893
vn 0.3340 0.9426 0.0000
vn 0.1670 0.9426 0.2893
vn -0.1670 0.9426 0.2893
vn -0.3340 0.9426 0.0000
vn -0.1670 0.9426 -0.2893
usemtl None
s off
f 1/1/1 14/2/1 13/3/1 3/4/1
f 3/4/2 13/3/2 15/5/2 5/6/2
f 5/6/3 15/5/3 16/7/3 7/8/3
f 7/8/4 16/7/4 17/9/4 9/10/4
f 4/11/5 2/12/5 12/13/5 10/14/5 8/15/5 6/16/5
f 9/10/6 17/9/6 18/17/6 11/18/6
f 11/18/7 18/17/7 14/19/7 1/20/7
f 1/21/8 3/22/8 5/23/8 7/24/8 9/25/8 11/26/8
f 2/12/9 4/11/9 13/27/9 14/28/9
f 4/11/10 6/16/10 15/29/10 13/27/10
f 6/16/11 8/15/11 16/30/11 15/29/11
f 8/15/12 10/14/12 17/31/12 16/30/12
f 10/14/13 12/13/13 18/32/13 17/31/13
f 12/13/14 2/12/14 14/28/14 18/32/14
