# MagicaVoxel @ Ephtracy

# group
o 

# material
mtllib BuildingHumanFoodSmall.mtl
usemtl palette

# normals
vn -1 0 0
vn 1 0 0
vn 0 0 1
vn 0 0 -1
vn 0 -1 0
vn 0 1 0

# texcoords
vt 0.0175781 0.5
vt 0.0214844 0.5
vt 0.537109 0.5
vt 0.580078 0.5
vt 0.904297 0.5

# verts
v 0.3 0 1.5
v 0.3 0 -1.1
v 0.3 0.1 1.5
v 0.3 0.1 -1.1
v 0.4 0.1 1.5
v 0.4 0.1 -1.1
v 0.4 0.2 1.5
v 0.4 0.2 -1.1
v 0.5 0.2 1.5
v 0.5 0.2 -1.1
v 0.5 0.3 1.5
v 0.5 0.3 1.4
v 0.5 0.3 1.3
v 0.5 0.3 0.7
v 0.5 0.3 0.5
v 0.5 0.3 0.1
v 0.5 0.3 -0.1
v 0.5 0.3 -0.6
v 0.5 0.3 -0.8
v 0.5 0.3 -1.1
v 0.5 0.5 0.7
v 0.5 0.5 0.6
v 0.5 0.5 0
v 0.5 0.5 -0.1
v 0.5 0.5 -0.7
v 0.5 0.5 -0.8
v 0.5 0.6 1.3
v 0.5 0.6 1.2
v 0.5 0.6 0.7
v 0.5 0.6 0.6
v 0.5 0.6 0
v 0.5 0.6 -0.1
v 0.5 0.6 -0.7
v 0.5 0.6 -0.8
v 0.5 0.7 1.4
v 0.5 0.7 1.3
v 0.5 0.7 0.6
v 0.5 0.7 0.5
v 0.5 0.7 0
v 0.5 0.7 -0.1
v 0.5 0.8 0.1
v 0.5 0.8 0
v 0.5 0.8 -0.6
v 0.5 0.8 -0.7
v 0.5 0.9 0.7
v 0.5 0.9 0.6
v 0.5 0.9 0
v 0.5 0.9 -0.1
v 0.5 0.9 -0.7
v 0.5 0.9 -0.8
v 0.5 1 1.3
v 0.5 1 1.2
v 0.5 1 0.6
v 0.5 1 0.5
v 0.5 1.1 1.4
v 0.5 1.1 1.3
v 1 0.1 1.5
v 1 0.1 -1.1
v 1 0.2 1.5
v 1 0.2 -1.1
v 1.1 0.2 1.5
v 1.1 0.2 -1.1
v 1.1 0.3 1.5
v 1.1 0.3 1
v 1.1 0.3 0.8
v 1.1 0.3 0.3
v 1.1 0.3 0.1
v 1.1 0.3 -0.4
v 1.1 0.3 -0.6
v 1.1 0.3 -1.1
v 1.1 0.5 1
v 1.1 0.5 0.8
v 1.1 0.5 0.3
v 1.1 0.5 0.1
v 1.1 0.5 -0.4
v 1.1 0.5 -0.6
v 1.6 0.1 1.5
v 1.6 0.1 -1.1
v 1.6 0.2 1.5
v 1.6 0.2 -1.1
v 1.7 0.2 1.5
v 1.7 0.2 -1.1
v 1.7 0.3 1.5
v 1.7 0.3 1.2
v 1.7 0.3 1.1
v 1.7 0.3 0
v 1.7 0.3 -0.1
v 1.7 0.3 -0.6
v 1.7 0.3 -0.7
v 1.7 0.3 -1.1
v 1.7 0.6 0
v 1.7 0.6 -0.1
v 1.7 0.7 1.3
v 1.7 0.7 1.2
v 1.7 0.7 -0.6
v 1.7 0.7 -0.7
v 1.7 0.8 1.3
v 1.7 0.8 1.1
v 0.6 0.2 1.5
v 0.6 0.2 -1.1
v 0.6 0.3 1.5
v 0.6 0.3 1.4
v 0.6 0.3 1.3
v 0.6 0.3 0.7
v 0.6 0.3 0.5
v 0.6 0.3 0.1
v 0.6 0.3 -0.1
v 0.6 0.3 -0.6
v 0.6 0.3 -0.8
v 0.6 0.3 -1.1
v 0.6 0.5 0.7
v 0.6 0.5 0.6
v 0.6 0.5 0
v 0.6 0.5 -0.1
v 0.6 0.5 -0.7
v 0.6 0.5 -0.8
v 0.6 0.6 1.3
v 0.6 0.6 1.2
v 0.6 0.6 0.7
v 0.6 0.6 0.6
v 0.6 0.6 0
v 0.6 0.6 -0.1
v 0.6 0.6 -0.7
v 0.6 0.6 -0.8
v 0.6 0.7 1.4
v 0.6 0.7 1.3
v 0.6 0.7 0.6
v 0.6 0.7 0.5
v 0.6 0.7 0
v 0.6 0.7 -0.1
v 0.6 0.8 0.1
v 0.6 0.8 0
v 0.6 0.8 -0.6
v 0.6 0.8 -0.7
v 0.6 0.9 0.7
v 0.6 0.9 0.6
v 0.6 0.9 0
v 0.6 0.9 -0.1
v 0.6 0.9 -0.7
v 0.6 0.9 -0.8
v 0.6 1 1.3
v 0.6 1 1.2
v 0.6 1 0.6
v 0.6 1 0.5
v 0.6 1.1 1.4
v 0.6 1.1 1.3
v 0.7 0.1 1.5
v 0.7 0.1 -1.1
v 0.7 0.2 1.5
v 0.7 0.2 -1.1
v 1.2 0.2 1.5
v 1.2 0.2 -1.1
v 1.2 0.3 1.5
v 1.2 0.3 1
v 1.2 0.3 0.8
v 1.2 0.3 0.3
v 1.2 0.3 0.1
v 1.2 0.3 -0.4
v 1.2 0.3 -0.6
v 1.2 0.3 -1.1
v 1.2 0.5 1
v 1.2 0.5 0.8
v 1.2 0.5 0.3
v 1.2 0.5 0.1
v 1.2 0.5 -0.4
v 1.2 0.5 -0.6
v 1.3 0.1 1.5
v 1.3 0.1 -1.1
v 1.3 0.2 1.5
v 1.3 0.2 -1.1
v 1.8 0.2 1.5
v 1.8 0.2 -1.1
v 1.8 0.3 1.5
v 1.8 0.3 1.2
v 1.8 0.3 1.1
v 1.8 0.3 0
v 1.8 0.3 -0.1
v 1.8 0.3 -0.6
v 1.8 0.3 -0.7
v 1.8 0.3 -1.1
v 1.8 0.6 0
v 1.8 0.6 -0.1
v 1.8 0.7 1.3
v 1.8 0.7 1.2
v 1.8 0.7 -0.6
v 1.8 0.7 -0.7
v 1.8 0.8 1.3
v 1.8 0.8 1.1
v 1.9 0.1 1.5
v 1.9 0.1 -1.1
v 1.9 0.2 1.5
v 1.9 0.2 -1.1
v 2 0 1.5
v 2 0 -1.1
v 2 0.1 1.5
v 2 0.1 -1.1
v 0.3 0 1.5
v 0.3 0.1 1.5
v 0.4 0.1 1.5
v 0.4 0.2 1.5
v 0.5 0.2 1.5
v 0.5 0.3 1.5
v 0.6 0.2 1.5
v 0.6 0.3 1.5
v 0.7 0.1 1.5
v 0.7 0.2 1.5
v 1 0.1 1.5
v 1 0.2 1.5
v 1.1 0.2 1.5
v 1.1 0.3 1.5
v 1.2 0.2 1.5
v 1.2 0.3 1.5
v 1.3 0.1 1.5
v 1.3 0.2 1.5
v 1.6 0.1 1.5
v 1.6 0.2 1.5
v 1.7 0.2 1.5
v 1.7 0.3 1.5
v 1.8 0.2 1.5
v 1.8 0.3 1.5
v 1.9 0.1 1.5
v 1.9 0.2 1.5
v 2 0 1.5
v 2 0.1 1.5
v 0.5 0.3 1.4
v 0.5 0.7 1.4
v 0.5 1.1 1.4
v 0.6 0.3 1.4
v 0.6 0.7 1.4
v 0.6 1.1 1.4
v 1.7 0.7 1.3
v 1.7 0.8 1.3
v 1.8 0.7 1.3
v 1.8 0.8 1.3
v 1.7 0.3 1.2
v 1.7 0.7 1.2
v 1.8 0.3 1.2
v 1.8 0.7 1.2
v 1.1 0.3 1
v 1.1 0.5 1
v 1.2 0.3 1
v 1.2 0.5 1
v 0.5 0.3 0.7
v 0.5 0.5 0.7
v 0.5 0.6 0.7
v 0.5 0.9 0.7
v 0.6 0.3 0.7
v 0.6 0.5 0.7
v 0.6 0.6 0.7
v 0.6 0.9 0.7
v 0.5 0.5 0.6
v 0.5 0.6 0.6
v 0.5 0.9 0.6
v 0.5 1 0.6
v 0.6 0.5 0.6
v 0.6 0.6 0.6
v 0.6 0.9 0.6
v 0.6 1 0.6
v 1.1 0.3 0.3
v 1.1 0.5 0.3
v 1.2 0.3 0.3
v 1.2 0.5 0.3
v 0.5 0.3 0.1
v 0.5 0.8 0.1
v 0.6 0.3 0.1
v 0.6 0.8 0.1
v 0.5 0.8 0
v 0.5 0.9 0
v 0.6 0.8 0
v 0.6 0.9 0
v 1.7 0.3 0
v 1.7 0.6 0
v 1.8 0.3 0
v 1.8 0.6 0
v 1.1 0.3 -0.4
v 1.1 0.5 -0.4
v 1.2 0.3 -0.4
v 1.2 0.5 -0.4
v 0.5 0.3 -0.6
v 0.5 0.8 -0.6
v 0.6 0.3 -0.6
v 0.6 0.8 -0.6
v 1.7 0.3 -0.6
v 1.7 0.7 -0.6
v 1.8 0.3 -0.6
v 1.8 0.7 -0.6
v 0.5 0.8 -0.7
v 0.5 0.9 -0.7
v 0.6 0.8 -0.7
v 0.6 0.9 -0.7
v 0.5 0.3 1.3
v 0.5 0.6 1.3
v 0.5 1 1.3
v 0.5 1.1 1.3
v 0.6 0.3 1.3
v 0.6 0.6 1.3
v 0.6 1 1.3
v 0.6 1.1 1.3
v 0.5 0.6 1.2
v 0.5 1 1.2
v 0.6 0.6 1.2
v 0.6 1 1.2
v 1.7 0.3 1.1
v 1.7 0.8 1.1
v 1.8 0.3 1.1
v 1.8 0.8 1.1
v 1.1 0.3 0.8
v 1.1 0.5 0.8
v 1.2 0.3 0.8
v 1.2 0.5 0.8
v 0.5 0.3 0.5
v 0.5 0.7 0.5
v 0.5 1 0.5
v 0.6 0.3 0.5
v 0.6 0.7 0.5
v 0.6 1 0.5
v 1.1 0.3 0.1
v 1.1 0.5 0.1
v 1.2 0.3 0.1
v 1.2 0.5 0.1
v 0.5 0.5 0
v 0.5 0.6 0
v 0.6 0.5 0
v 0.6 0.6 0
v 0.5 0.3 -0.1
v 0.5 0.5 -0.1
v 0.5 0.6 -0.1
v 0.5 0.7 -0.1
v 0.5 0.9 -0.1
v 0.6 0.3 -0.1
v 0.6 0.5 -0.1
v 0.6 0.6 -0.1
v 0.6 0.7 -0.1
v 0.6 0.9 -0.1
v 1.7 0.3 -0.1
v 1.7 0.6 -0.1
v 1.8 0.3 -0.1
v 1.8 0.6 -0.1
v 1.1 0.3 -0.6
v 1.1 0.5 -0.6
v 1.2 0.3 -0.6
v 1.2 0.5 -0.6
v 0.5 0.5 -0.7
v 0.5 0.6 -0.7
v 0.6 0.5 -0.7
v 0.6 0.6 -0.7
v 1.7 0.3 -0.7
v 1.7 0.7 -0.7
v 1.8 0.3 -0.7
v 1.8 0.7 -0.7
v 0.5 0.3 -0.8
v 0.5 0.5 -0.8
v 0.5 0.6 -0.8
v 0.5 0.9 -0.8
v 0.6 0.3 -0.8
v 0.6 0.5 -0.8
v 0.6 0.6 -0.8
v 0.6 0.9 -0.8
v 0.3 0 -1.1
v 0.3 0.1 -1.1
v 0.4 0.1 -1.1
v 0.4 0.2 -1.1
v 0.5 0.2 -1.1
v 0.5 0.3 -1.1
v 0.6 0.2 -1.1
v 0.6 0.3 -1.1
v 0.7 0.1 -1.1
v 0.7 0.2 -1.1
v 1 0.1 -1.1
v 1 0.2 -1.1
v 1.1 0.2 -1.1
v 1.1 0.3 -1.1
v 1.2 0.2 -1.1
v 1.2 0.3 -1.1
v 1.3 0.1 -1.1
v 1.3 0.2 -1.1
v 1.6 0.1 -1.1
v 1.6 0.2 -1.1
v 1.7 0.2 -1.1
v 1.7 0.3 -1.1
v 1.8 0.2 -1.1
v 1.8 0.3 -1.1
v 1.9 0.1 -1.1
v 1.9 0.2 -1.1
v 2 0 -1.1
v 2 0.1 -1.1
v 0.3 0 1.5
v 2 0 1.5
v 0.3 0 -1.1
v 2 0 -1.1
v 0.5 0.6 1.3
v 0.6 0.6 1.3
v 0.5 0.6 1.2
v 0.6 0.6 1.2
v 0.5 0.6 0.7
v 0.6 0.6 0.7
v 0.5 0.6 0.6
v 0.6 0.6 0.6
v 0.5 0.6 0
v 0.6 0.6 0
v 0.5 0.6 -0.1
v 0.6 0.6 -0.1
v 0.5 0.6 -0.7
v 0.6 0.6 -0.7
v 0.5 0.6 -0.8
v 0.6 0.6 -0.8
v 1.7 0.7 1.3
v 1.8 0.7 1.3
v 1.7 0.7 1.2
v 1.8 0.7 1.2
v 0.3 0.1 1.5
v 0.4 0.1 1.5
v 0.7 0.1 1.5
v 1 0.1 1.5
v 1.3 0.1 1.5
v 1.6 0.1 1.5
v 1.9 0.1 1.5
v 2 0.1 1.5
v 0.3 0.1 -1.1
v 0.4 0.1 -1.1
v 0.7 0.1 -1.1
v 1 0.1 -1.1
v 1.3 0.1 -1.1
v 1.6 0.1 -1.1
v 1.9 0.1 -1.1
v 2 0.1 -1.1
v 0.4 0.2 1.5
v 0.5 0.2 1.5
v 0.6 0.2 1.5
v 0.7 0.2 1.5
v 1 0.2 1.5
v 1.1 0.2 1.5
v 1.2 0.2 1.5
v 1.3 0.2 1.5
v 1.6 0.2 1.5
v 1.7 0.2 1.5
v 1.8 0.2 1.5
v 1.9 0.2 1.5
v 0.4 0.2 -1.1
v 0.5 0.2 -1.1
v 0.6 0.2 -1.1
v 0.7 0.2 -1.1
v 1 0.2 -1.1
v 1.1 0.2 -1.1
v 1.2 0.2 -1.1
v 1.3 0.2 -1.1
v 1.6 0.2 -1.1
v 1.7 0.2 -1.1
v 1.8 0.2 -1.1
v 1.9 0.2 -1.1
v 0.5 0.3 1.5
v 0.6 0.3 1.5
v 1.1 0.3 1.5
v 1.2 0.3 1.5
v 1.7 0.3 1.5
v 1.8 0.3 1.5
v 0.5 0.3 1.4
v 0.6 0.3 1.4
v 0.5 0.3 1.3
v 0.6 0.3 1.3
v 1.7 0.3 1.2
v 1.8 0.3 1.2
v 1.7 0.3 1.1
v 1.8 0.3 1.1
v 1.1 0.3 1
v 1.2 0.3 1
v 1.1 0.3 0.8
v 1.2 0.3 0.8
v 0.5 0.3 0.7
v 0.6 0.3 0.7
v 0.5 0.3 0.5
v 0.6 0.3 0.5
v 1.1 0.3 0.3
v 1.2 0.3 0.3
v 0.5 0.3 0.1
v 0.6 0.3 0.1
v 1.1 0.3 0.1
v 1.2 0.3 0.1
v 1.7 0.3 0
v 1.8 0.3 0
v 0.5 0.3 -0.1
v 0.6 0.3 -0.1
v 1.7 0.3 -0.1
v 1.8 0.3 -0.1
v 1.1 0.3 -0.4
v 1.2 0.3 -0.4
v 0.5 0.3 -0.6
v 0.6 0.3 -0.6
v 1.1 0.3 -0.6
v 1.2 0.3 -0.6
v 1.7 0.3 -0.6
v 1.8 0.3 -0.6
v 1.7 0.3 -0.7
v 1.8 0.3 -0.7
v 0.5 0.3 -0.8
v 0.6 0.3 -0.8
v 0.5 0.3 -1.1
v 0.6 0.3 -1.1
v 1.1 0.3 -1.1
v 1.2 0.3 -1.1
v 1.7 0.3 -1.1
v 1.8 0.3 -1.1
v 1.1 0.5 1
v 1.2 0.5 1
v 1.1 0.5 0.8
v 1.2 0.5 0.8
v 0.5 0.5 0.7
v 0.6 0.5 0.7
v 0.5 0.5 0.6
v 0.6 0.5 0.6
v 1.1 0.5 0.3
v 1.2 0.5 0.3
v 1.1 0.5 0.1
v 1.2 0.5 0.1
v 0.5 0.5 0
v 0.6 0.5 0
v 0.5 0.5 -0.1
v 0.6 0.5 -0.1
v 1.1 0.5 -0.4
v 1.2 0.5 -0.4
v 1.1 0.5 -0.6
v 1.2 0.5 -0.6
v 0.5 0.5 -0.7
v 0.6 0.5 -0.7
v 0.5 0.5 -0.8
v 0.6 0.5 -0.8
v 1.7 0.6 0
v 1.8 0.6 0
v 1.7 0.6 -0.1
v 1.8 0.6 -0.1
v 1.7 0.7 -0.6
v 1.8 0.7 -0.6
v 1.7 0.7 -0.7
v 1.8 0.7 -0.7
v 1.7 0.8 1.3
v 1.8 0.8 1.3
v 1.7 0.8 1.1
v 1.8 0.8 1.1
v 0.5 0.8 0.1
v 0.6 0.8 0.1
v 0.5 0.8 0
v 0.6 0.8 0
v 0.5 0.8 -0.6
v 0.6 0.8 -0.6
v 0.5 0.8 -0.7
v 0.6 0.8 -0.7
v 0.5 0.9 0.7
v 0.6 0.9 0.7
v 0.5 0.9 0.6
v 0.6 0.9 0.6
v 0.5 0.9 0
v 0.6 0.9 0
v 0.5 0.9 -0.1
v 0.6 0.9 -0.1
v 0.5 0.9 -0.7
v 0.6 0.9 -0.7
v 0.5 0.9 -0.8
v 0.6 0.9 -0.8
v 0.5 1 1.3
v 0.6 1 1.3
v 0.5 1 1.2
v 0.6 1 1.2
v 0.5 1 0.6
v 0.6 1 0.6
v 0.5 1 0.5
v 0.6 1 0.5
v 0.5 1.1 1.4
v 0.6 1.1 1.4
v 0.5 1.1 1.3
v 0.6 1.1 1.3

# faces
f 3/3/1 2/3/1 1/3/1
f 4/3/1 2/3/1 3/3/1
f 7/4/1 6/4/1 5/4/1
f 8/4/1 6/4/1 7/4/1
f 11/5/1 10/5/1 9/5/1
f 12/5/1 10/5/1 11/5/1
f 13/5/1 10/5/1 12/5/1
f 14/5/1 10/5/1 13/5/1
f 15/5/1 10/5/1 14/5/1
f 16/5/1 10/5/1 15/5/1
f 17/5/1 10/5/1 16/5/1
f 18/5/1 10/5/1 17/5/1
f 19/5/1 10/5/1 18/5/1
f 20/5/1 10/5/1 19/5/1
f 21/5/1 15/5/1 14/5/1
f 22/5/1 15/5/1 21/5/1
f 23/5/1 17/5/1 16/5/1
f 24/5/1 17/5/1 23/5/1
f 25/5/1 19/5/1 18/5/1
f 26/5/1 19/5/1 25/5/1
f 27/5/1 13/5/1 12/5/1
f 30/5/1 15/5/1 22/5/1
f 31/5/1 23/5/1 16/5/1
f 33/5/1 25/5/1 18/5/1
f 35/5/1 28/5/1 27/5/1
f 35/5/1 27/5/1 12/5/1
f 36/5/1 28/5/1 35/5/1
f 37/5/1 30/5/1 29/5/1
f 37/5/1 15/5/1 30/5/1
f 38/5/1 15/5/1 37/5/1
f 39/5/1 32/5/1 31/5/1
f 39/5/1 31/5/1 16/5/1
f 40/5/1 32/5/1 39/5/1
f 41/5/1 39/5/1 16/5/1
f 42/2/1 40/2/1 39/2/1
f 42/5/1 39/5/1 41/5/1
f 43/5/1 33/5/1 18/5/1
f 44/2/1 34/2/1 33/2/1
f 44/5/1 33/5/1 43/5/1
f 45/5/1 37/5/1 29/5/1
f 46/2/1 38/2/1 37/2/1
f 46/5/1 37/5/1 45/5/1
f 47/2/1 40/2/1 42/2/1
f 48/2/1 40/2/1 47/2/1
f 49/2/1 34/2/1 44/2/1
f 50/2/1 34/2/1 49/2/1
f 51/5/1 28/5/1 36/5/1
f 51/1/1 36/1/1 35/1/1
f 52/5/1 28/5/1 51/5/1
f 53/2/1 38/2/1 46/2/1
f 54/2/1 38/2/1 53/2/1
f 55/1/1 51/1/1 35/1/1
f 56/1/1 51/1/1 55/1/1
f 59/4/1 58/4/1 57/4/1
f 60/4/1 58/4/1 59/4/1
f 63/5/1 62/5/1 61/5/1
f 64/5/1 62/5/1 63/5/1
f 65/5/1 62/5/1 64/5/1
f 66/5/1 62/5/1 65/5/1
f 67/5/1 62/5/1 66/5/1
f 68/5/1 62/5/1 67/5/1
f 69/5/1 62/5/1 68/5/1
f 70/5/1 62/5/1 69/5/1
f 71/5/1 65/5/1 64/5/1
f 72/5/1 65/5/1 71/5/1
f 73/5/1 67/5/1 66/5/1
f 74/5/1 67/5/1 73/5/1
f 75/5/1 69/5/1 68/5/1
f 76/5/1 69/5/1 75/5/1
f 79/4/1 78/4/1 77/4/1
f 80/4/1 78/4/1 79/4/1
f 83/5/1 82/5/1 81/5/1
f 84/5/1 82/5/1 83/5/1
f 85/5/1 82/5/1 84/5/1
f 86/5/1 82/5/1 85/5/1
f 87/5/1 82/5/1 86/5/1
f 88/5/1 82/5/1 87/5/1
f 89/5/1 82/5/1 88/5/1
f 90/5/1 82/5/1 89/5/1
f 91/5/1 87/5/1 86/5/1
f 92/5/1 87/5/1 91/5/1
f 94/5/1 85/5/1 84/5/1
f 95/5/1 89/5/1 88/5/1
f 96/5/1 89/5/1 95/5/1
f 97/5/1 94/5/1 93/5/1
f 98/5/1 85/5/1 94/5/1
f 98/5/1 94/5/1 97/5/1
f 99/5/2 100/5/2 101/5/2
f 101/5/2 100/5/2 102/5/2
f 102/5/2 100/5/2 103/5/2
f 103/5/2 100/5/2 104/5/2
f 104/5/2 100/5/2 105/5/2
f 105/5/2 100/5/2 106/5/2
f 106/5/2 100/5/2 107/5/2
f 107/5/2 100/5/2 108/5/2
f 108/5/2 100/5/2 109/5/2
f 109/5/2 100/5/2 110/5/2
f 104/5/2 105/5/2 111/5/2
f 111/5/2 105/5/2 112/5/2
f 106/5/2 107/5/2 113/5/2
f 113/5/2 107/5/2 114/5/2
f 108/5/2 109/5/2 115/5/2
f 115/5/2 109/5/2 116/5/2
f 102/5/2 103/5/2 117/5/2
f 112/5/2 105/5/2 120/5/2
f 106/5/2 113/5/2 121/5/2
f 108/5/2 115/5/2 123/5/2
f 117/5/2 118/5/2 125/5/2
f 102/5/2 117/5/2 125/5/2
f 125/5/2 118/5/2 126/5/2
f 119/5/2 120/5/2 127/5/2
f 120/5/2 105/5/2 127/5/2
f 127/5/2 105/5/2 128/5/2
f 121/5/2 122/5/2 129/5/2
f 106/5/2 121/5/2 129/5/2
f 129/5/2 122/5/2 130/5/2
f 106/5/2 129/5/2 131/5/2
f 129/2/2 130/2/2 132/2/2
f 131/5/2 129/5/2 132/5/2
f 108/5/2 123/5/2 133/5/2
f 123/2/2 124/2/2 134/2/2
f 133/5/2 123/5/2 134/5/2
f 119/5/2 127/5/2 135/5/2
f 127/2/2 128/2/2 136/2/2
f 135/5/2 127/5/2 136/5/2
f 132/2/2 130/2/2 137/2/2
f 137/2/2 130/2/2 138/2/2
f 134/2/2 124/2/2 139/2/2
f 139/2/2 124/2/2 140/2/2
f 126/5/2 118/5/2 141/5/2
f 125/1/2 126/1/2 141/1/2
f 141/5/2 118/5/2 142/5/2
f 136/2/2 128/2/2 143/2/2
f 143/2/2 128/2/2 144/2/2
f 125/1/2 141/1/2 145/1/2
f 145/1/2 141/1/2 146/1/2
f 147/4/2 148/4/2 149/4/2
f 149/4/2 148/4/2 150/4/2
f 151/5/2 152/5/2 153/5/2
f 153/5/2 152/5/2 154/5/2
f 154/5/2 152/5/2 155/5/2
f 155/5/2 152/5/2 156/5/2
f 156/5/2 152/5/2 157/5/2
f 157/5/2 152/5/2 158/5/2
f 158/5/2 152/5/2 159/5/2
f 159/5/2 152/5/2 160/5/2
f 154/5/2 155/5/2 161/5/2
f 161/5/2 155/5/2 162/5/2
f 156/5/2 157/5/2 163/5/2
f 163/5/2 157/5/2 164/5/2
f 158/5/2 159/5/2 165/5/2
f 165/5/2 159/5/2 166/5/2
f 167/4/2 168/4/2 169/4/2
f 169/4/2 168/4/2 170/4/2
f 171/5/2 172/5/2 173/5/2
f 173/5/2 172/5/2 174/5/2
f 174/5/2 172/5/2 175/5/2
f 175/5/2 172/5/2 176/5/2
f 176/5/2 172/5/2 177/5/2
f 177/5/2 172/5/2 178/5/2
f 178/5/2 172/5/2 179/5/2
f 179/5/2 172/5/2 180/5/2
f 176/5/2 177/5/2 181/5/2
f 181/5/2 177/5/2 182/5/2
f 174/5/2 175/5/2 184/5/2
f 178/5/2 179/5/2 185/5/2
f 185/5/2 179/5/2 186/5/2
f 183/5/2 184/5/2 187/5/2
f 184/5/2 175/5/2 188/5/2
f 187/5/2 184/5/2 188/5/2
f 189/4/2 190/4/2 191/4/2
f 191/4/2 190/4/2 192/4/2
f 193/3/2 194/3/2 195/3/2
f 195/3/2 194/3/2 196/3/2
f 199/3/3 198/3/3 197/3/3
f 201/4/3 200/4/3 199/4/3
f 203/4/3 201/4/3 199/4/3
f 203/5/3 202/5/3 201/5/3
f 204/5/3 202/5/3 203/5/3
f 205/3/3 199/3/3 197/3/3
f 205/4/3 203/4/3 199/4/3
f 206/4/3 203/4/3 205/4/3
f 207/3/3 205/3/3 197/3/3
f 209/4/3 208/4/3 207/4/3
f 211/4/3 209/4/3 207/4/3
f 211/5/3 210/5/3 209/5/3
f 212/5/3 210/5/3 211/5/3
f 213/3/3 207/3/3 197/3/3
f 213/4/3 211/4/3 207/4/3
f 214/4/3 211/4/3 213/4/3
f 215/3/3 213/3/3 197/3/3
f 217/4/3 216/4/3 215/4/3
f 219/4/3 217/4/3 215/4/3
f 219/5/3 218/5/3 217/5/3
f 220/5/3 218/5/3 219/5/3
f 221/3/3 215/3/3 197/3/3
f 221/4/3 219/4/3 215/4/3
f 222/4/3 219/4/3 221/4/3
f 223/3/3 221/3/3 197/3/3
f 224/3/3 221/3/3 223/3/3
f 228/5/3 226/5/3 225/5/3
f 229/1/3 227/1/3 226/1/3
f 229/5/3 226/5/3 228/5/3
f 230/1/3 227/1/3 229/1/3
f 233/5/3 232/5/3 231/5/3
f 234/5/3 232/5/3 233/5/3
f 237/5/3 236/5/3 235/5/3
f 238/5/3 236/5/3 237/5/3
f 241/5/3 240/5/3 239/5/3
f 242/5/3 240/5/3 241/5/3
f 247/5/3 244/5/3 243/5/3
f 248/5/3 244/5/3 247/5/3
f 249/5/3 246/5/3 245/5/3
f 250/5/3 246/5/3 249/5/3
f 255/5/3 252/5/3 251/5/3
f 256/5/3 252/5/3 255/5/3
f 257/2/3 254/2/3 253/2/3
f 258/2/3 254/2/3 257/2/3
f 261/5/3 260/5/3 259/5/3
f 262/5/3 260/5/3 261/5/3
f 265/5/3 264/5/3 263/5/3
f 266/5/3 264/5/3 265/5/3
f 269/2/3 268/2/3 267/2/3
f 270/2/3 268/2/3 269/2/3
f 273/5/3 272/5/3 271/5/3
f 274/5/3 272/5/3 273/5/3
f 277/5/3 276/5/3 275/5/3
f 278/5/3 276/5/3 277/5/3
f 281/5/3 280/5/3 279/5/3
f 282/5/3 280/5/3 281/5/3
f 285/5/3 284/5/3 283/5/3
f 286/5/3 284/5/3 285/5/3
f 289/2/3 288/2/3 287/2/3
f 290/2/3 288/2/3 289/2/3
f 291/5/4 292/5/4 295/5/4
f 295/5/4 292/5/4 296/5/4
f 293/1/4 294/1/4 297/1/4
f 297/1/4 294/1/4 298/1/4
f 299/5/4 300/5/4 301/5/4
f 301/5/4 300/5/4 302/5/4
f 303/5/4 304/5/4 305/5/4
f 305/5/4 304/5/4 306/5/4
f 307/5/4 308/5/4 309/5/4
f 309/5/4 308/5/4 310/5/4
f 311/5/4 312/5/4 314/5/4
f 312/2/4 313/2/4 315/2/4
f 314/5/4 312/5/4 315/5/4
f 315/2/4 313/2/4 316/2/4
f 317/5/4 318/5/4 319/5/4
f 319/5/4 318/5/4 320/5/4
f 321/5/4 322/5/4 323/5/4
f 323/5/4 322/5/4 324/5/4
f 325/5/4 326/5/4 330/5/4
f 330/5/4 326/5/4 331/5/4
f 327/5/4 328/5/4 332/5/4
f 328/2/4 329/2/4 333/2/4
f 332/5/4 328/5/4 333/5/4
f 333/2/4 329/2/4 334/2/4
f 335/5/4 336/5/4 337/5/4
f 337/5/4 336/5/4 338/5/4
f 339/5/4 340/5/4 341/5/4
f 341/5/4 340/5/4 342/5/4
f 343/5/4 344/5/4 345/5/4
f 345/5/4 344/5/4 346/5/4
f 347/5/4 348/5/4 349/5/4
f 349/5/4 348/5/4 350/5/4
f 351/5/4 352/5/4 355/5/4
f 355/5/4 352/5/4 356/5/4
f 353/2/4 354/2/4 357/2/4
f 357/2/4 354/2/4 358/2/4
f 359/3/4 360/3/4 361/3/4
f 361/4/4 362/4/4 363/4/4
f 361/4/4 363/4/4 365/4/4
f 363/5/4 364/5/4 365/5/4
f 365/5/4 364/5/4 366/5/4
f 359/3/4 361/3/4 367/3/4
f 361/4/4 365/4/4 367/4/4
f 367/4/4 365/4/4 368/4/4
f 359/3/4 367/3/4 369/3/4
f 369/4/4 370/4/4 371/4/4
f 369/4/4 371/4/4 373/4/4
f 371/5/4 372/5/4 373/5/4
f 373/5/4 372/5/4 374/5/4
f 359/3/4 369/3/4 375/3/4
f 369/4/4 373/4/4 375/4/4
f 375/4/4 373/4/4 376/4/4
f 359/3/4 375/3/4 377/3/4
f 377/4/4 378/4/4 379/4/4
f 377/4/4 379/4/4 381/4/4
f 379/5/4 380/5/4 381/5/4
f 381/5/4 380/5/4 382/5/4
f 359/3/4 377/3/4 383/3/4
f 377/4/4 381/4/4 383/4/4
f 383/4/4 381/4/4 384/4/4
f 359/3/4 383/3/4 385/3/4
f 385/3/4 383/3/4 386/3/4
f 389/3/5 388/3/5 387/3/5
f 390/3/5 388/3/5 389/3/5
f 393/5/5 392/5/5 391/5/5
f 394/5/5 392/5/5 393/5/5
f 397/5/5 396/5/5 395/5/5
f 398/5/5 396/5/5 397/5/5
f 401/5/5 400/5/5 399/5/5
f 402/5/5 400/5/5 401/5/5
f 405/2/5 404/2/5 403/2/5
f 406/2/5 404/2/5 405/2/5
f 409/5/5 408/5/5 407/5/5
f 410/5/5 408/5/5 409/5/5
f 411/3/6 412/3/6 419/3/6
f 419/3/6 412/3/6 420/3/6
f 413/3/6 414/3/6 421/3/6
f 421/3/6 414/3/6 422/3/6
f 415/3/6 416/3/6 423/3/6
f 423/3/6 416/3/6 424/3/6
f 417/3/6 418/3/6 425/3/6
f 425/3/6 418/3/6 426/3/6
f 427/4/6 428/4/6 439/4/6
f 439/4/6 428/4/6 440/4/6
f 429/4/6 430/4/6 441/4/6
f 441/4/6 430/4/6 442/4/6
f 431/4/6 432/4/6 443/4/6
f 443/4/6 432/4/6 444/4/6
f 433/4/6 434/4/6 445/4/6
f 445/4/6 434/4/6 446/4/6
f 435/4/6 436/4/6 447/4/6
f 447/4/6 436/4/6 448/4/6
f 437/4/6 438/4/6 449/4/6
f 449/4/6 438/4/6 450/4/6
f 451/5/6 452/5/6 457/5/6
f 457/5/6 452/5/6 458/5/6
f 455/5/6 456/5/6 461/5/6
f 461/5/6 456/5/6 462/5/6
f 453/5/6 454/5/6 465/5/6
f 465/5/6 454/5/6 466/5/6
f 459/5/6 460/5/6 469/5/6
f 469/5/6 460/5/6 470/5/6
f 467/5/6 468/5/6 473/5/6
f 473/5/6 468/5/6 474/5/6
f 471/5/6 472/5/6 475/5/6
f 475/5/6 472/5/6 476/5/6
f 463/5/6 464/5/6 479/5/6
f 479/5/6 464/5/6 480/5/6
f 477/5/6 478/5/6 485/5/6
f 485/5/6 478/5/6 486/5/6
f 481/5/6 482/5/6 487/5/6
f 487/5/6 482/5/6 488/5/6
f 483/5/6 484/5/6 491/5/6
f 491/5/6 484/5/6 492/5/6
f 495/5/6 496/5/6 497/5/6
f 497/5/6 496/5/6 498/5/6
f 489/5/6 490/5/6 499/5/6
f 499/5/6 490/5/6 500/5/6
f 493/5/6 494/5/6 501/5/6
f 501/5/6 494/5/6 502/5/6
f 503/5/6 504/5/6 505/5/6
f 505/5/6 504/5/6 506/5/6
f 507/5/6 508/5/6 509/5/6
f 509/5/6 508/5/6 510/5/6
f 511/5/6 512/5/6 513/5/6
f 513/5/6 512/5/6 514/5/6
f 515/5/6 516/5/6 517/5/6
f 517/5/6 516/5/6 518/5/6
f 519/5/6 520/5/6 521/5/6
f 521/5/6 520/5/6 522/5/6
f 523/5/6 524/5/6 525/5/6
f 525/5/6 524/5/6 526/5/6
f 527/5/6 528/5/6 529/5/6
f 529/5/6 528/5/6 530/5/6
f 531/5/6 532/5/6 533/5/6
f 533/5/6 532/5/6 534/5/6
f 535/5/6 536/5/6 537/5/6
f 537/5/6 536/5/6 538/5/6
f 539/5/6 540/5/6 541/5/6
f 541/5/6 540/5/6 542/5/6
f 543/5/6 544/5/6 545/5/6
f 545/5/6 544/5/6 546/5/6
f 547/5/6 548/5/6 549/5/6
f 549/5/6 548/5/6 550/5/6
f 551/2/6 552/2/6 553/2/6
f 553/2/6 552/2/6 554/2/6
f 555/2/6 556/2/6 557/2/6
f 557/2/6 556/2/6 558/2/6
f 559/5/6 560/5/6 561/5/6
f 561/5/6 560/5/6 562/5/6
f 563/2/6 564/2/6 565/2/6
f 565/2/6 564/2/6 566/2/6
f 567/1/6 568/1/6 569/1/6
f 569/1/6 568/1/6 570/1/6
