# MagicaVoxel @ Ephtracy

# group
o 

# material
mtllib BuildingHumanFactorySmall.mtl
usemtl palette

# normals
vn -1 0 0
vn 1 0 0
vn 0 0 1
vn 0 0 -1
vn 0 -1 0
vn 0 1 0

# texcoords
vt 0.00195313 0.5
vt 0.994141 0.5

# verts
v -2 0 0.7
v -2 0 -0.9
v -2 1.3 0.7
v -2 1.3 -0.9
v 0.3 1.3 0.1
v 0.3 1.3 -0.3
v 0.3 2.8 0.1
v 0.3 2.8 -0.3
v 0.7 0.7 0.7
v 0.7 0.7 0.6
v 0.7 1.1 0.7
v 0.7 1.1 0.6
v 2.38419e-07 0.7 0.7
v 2.38419e-07 0.7 0.6
v 2.38419e-07 1.1 0.7
v 2.38419e-07 1.1 0.6
v 0.7 1.3 0.1
v 0.7 1.3 -0.3
v 0.7 2.8 0.1
v 0.7 2.8 -0.3
v 1 0 0.7
v 1 0 -0.9
v 1 1.3 0.7
v 1 1.3 -0.9
v -2 0 0.7
v -2 1.3 0.7
v -1.5 0 0.7
v -1.5 0.3 0.7
v -1.3 0 0.7
v -1.3 0.3 0.7
v 2.38419e-07 0.7 0.7
v 2.38419e-07 1.1 0.7
v 0.7 0.7 0.7
v 0.7 1.1 0.7
v 1 0 0.7
v 1 1.3 0.7
v 2.38419e-07 0.7 0.6
v 2.38419e-07 1.1 0.6
v 0.7 0.7 0.6
v 0.7 1.1 0.6
v 0.3 1.3 0.1
v 0.3 2.8 0.1
v 0.7 1.3 0.1
v 0.7 2.8 0.1
v 0.3 1.3 -0.3
v 0.3 2.8 -0.3
v 0.7 1.3 -0.3
v 0.7 2.8 -0.3
v -2 0 -0.9
v -2 1.3 -0.9
v -1.7 0 -0.9
v -1.7 0.3 -0.9
v -1.5 0 -0.9
v -1.5 0.3 -0.9
v 2.38419e-07 0.7 -0.9
v 2.38419e-07 1.1 -0.9
v 0.7 0.7 -0.9
v 0.7 1.1 -0.9
v 1 0 -0.9
v 1 1.3 -0.9
v -2 0 0.7
v -1.5 0 0.7
v -1.3 0 0.7
v 1 0 0.7
v -1.5 0 0.6
v -1.3 0 0.6
v -1.7 0 -0.8
v -1.5 0 -0.8
v -2 0 -0.9
v -1.7 0 -0.9
v -1.5 0 -0.9
v 1 0 -0.9
v 2.38419e-07 1.1 0.7
v 0.7 1.1 0.7
v 2.38419e-07 1.1 0.6
v 0.7 1.1 0.6
v 2.38419e-07 0.7 0.7
v 0.7 0.7 0.7
v 2.38419e-07 0.7 0.6
v 0.7 0.7 0.6
v -2 1.3 0.7
v 1 1.3 0.7
v 0.3 1.3 0.1
v 0.7 1.3 0.1
v 0.3 1.3 -0.3
v 0.7 1.3 -0.3
v -2 1.3 -0.9
v 1 1.3 -0.9
v 0.3 2.8 0.1
v 0.7 2.8 0.1
v 0.4 2.8 -5.96046e-08
v 0.6 2.8 -5.96046e-08
v 0.4 2.8 -0.2
v 0.6 2.8 -0.2
v 0.3 2.8 -0.3
v 0.7 2.8 -0.3

# faces
f 3/1/1 2/1/1 1/1/1
f 4/1/1 2/1/1 3/1/1
f 7/1/1 6/1/1 5/1/1
f 8/1/1 6/1/1 7/1/1
f 11/1/1 10/1/1 9/1/1
f 12/1/1 10/1/1 11/1/1
f 13/1/2 14/1/2 15/1/2
f 15/1/2 14/1/2 16/1/2
f 17/1/2 18/1/2 19/1/2
f 19/1/2 18/1/2 20/1/2
f 21/1/2 22/1/2 23/1/2
f 23/1/2 22/1/2 24/1/2
f 27/1/3 26/1/3 25/1/3
f 28/1/3 26/1/3 27/1/3
f 29/2/3 28/2/3 27/2/3
f 30/1/3 26/1/3 28/1/3
f 30/2/3 28/2/3 29/2/3
f 31/1/3 30/1/3 29/1/3
f 31/1/3 26/1/3 30/1/3
f 32/1/3 26/1/3 31/1/3
f 33/1/3 31/1/3 29/1/3
f 34/1/3 26/1/3 32/1/3
f 35/1/3 33/1/3 29/1/3
f 35/1/3 34/1/3 33/1/3
f 36/1/3 26/1/3 34/1/3
f 36/1/3 34/1/3 35/1/3
f 39/2/3 38/2/3 37/2/3
f 40/2/3 38/2/3 39/2/3
f 43/1/3 42/1/3 41/1/3
f 44/1/3 42/1/3 43/1/3
f 45/1/4 46/1/4 47/1/4
f 47/1/4 46/1/4 48/1/4
f 49/1/4 50/1/4 51/1/4
f 51/1/4 50/1/4 52/1/4
f 51/2/4 52/2/4 53/2/4
f 52/1/4 50/1/4 54/1/4
f 53/2/4 52/2/4 54/2/4
f 53/1/4 54/1/4 55/1/4
f 54/1/4 50/1/4 55/1/4
f 55/1/4 50/1/4 56/1/4
f 53/1/4 55/1/4 57/1/4
f 55/2/4 56/2/4 57/2/4
f 56/1/4 50/1/4 58/1/4
f 57/2/4 56/2/4 58/2/4
f 53/1/4 57/1/4 59/1/4
f 57/1/4 58/1/4 59/1/4
f 58/1/4 50/1/4 60/1/4
f 59/1/4 58/1/4 60/1/4
f 65/1/5 62/1/5 61/1/5
f 65/2/5 63/2/5 62/2/5
f 66/1/5 64/1/5 63/1/5
f 66/2/5 63/2/5 65/2/5
f 67/1/5 65/1/5 61/1/5
f 67/1/5 66/1/5 65/1/5
f 68/1/5 66/1/5 67/1/5
f 69/1/5 67/1/5 61/1/5
f 70/2/5 68/2/5 67/2/5
f 70/1/5 67/1/5 69/1/5
f 71/1/5 66/1/5 68/1/5
f 71/2/5 68/2/5 70/2/5
f 72/1/5 64/1/5 66/1/5
f 72/1/5 66/1/5 71/1/5
f 75/1/5 74/1/5 73/1/5
f 76/1/5 74/1/5 75/1/5
f 77/1/6 78/1/6 79/1/6
f 79/1/6 78/1/6 80/1/6
f 81/1/6 82/1/6 83/1/6
f 83/1/6 82/1/6 84/1/6
f 81/1/6 83/1/6 85/1/6
f 84/1/6 82/1/6 86/1/6
f 81/1/6 85/1/6 87/1/6
f 85/1/6 86/1/6 87/1/6
f 86/1/6 82/1/6 88/1/6
f 87/1/6 86/1/6 88/1/6
f 89/1/6 90/1/6 91/1/6
f 91/1/6 90/1/6 92/1/6
f 89/1/6 91/1/6 93/1/6
f 91/2/6 92/2/6 93/2/6
f 92/1/6 90/1/6 94/1/6
f 93/2/6 92/2/6 94/2/6
f 89/1/6 93/1/6 95/1/6
f 93/1/6 94/1/6 95/1/6
f 94/1/6 90/1/6 96/1/6
f 95/1/6 94/1/6 96/1/6
