# MagicaVoxel @ Ephtracy

# group
o 

# material
mtllib PopulationSlime.mtl
usemtl palette

# normals
vn -1 0 0
vn 1 0 0
vn 0 0 1
vn 0 0 -1
vn 0 -1 0
vn 0 1 0

# texcoords
vt 0.572266 0.5
vt 0.740234 0.5
vt 0.958984 0.5
vt 0.994141 0.5

# verts
v 0.1 0 0.9
v 0.1 0 0.1
v 0.1 0 -0.5
v 0.1 0 -0.7
v 0.1 0.2 0.3
v 0.1 0.2 0.1
v 0.1 0.2 -0.3
v 0.1 0.2 -0.5
v 0.1 0.2 -0.6
v 0.1 0.2 -0.7
v 0.1 0.3 0.9
v 0.1 0.3 0.8
v 0.1 0.3 0
v 0.1 0.3 -0.3
v 0.1 0.3 -0.5
v 0.1 0.3 -0.6
v 0.1 0.4 0.5
v 0.1 0.4 0.3
v 0.1 0.4 -0.3
v 0.1 0.4 -0.5
v 0.1 0.5 0.8
v 0.1 0.5 0.6
v 0.1 0.5 0.2
v 0.1 0.5 0
v 0.1 0.5 -0.1
v 0.1 0.5 -0.3
v 0.1 0.6 0.6
v 0.1 0.6 0.5
v 0.1 0.6 0.2
v 0.1 0.6 -0.1
v 0.5 0 0.9
v 0.5 0 -0.7
v 0.5 0.1 0.7
v 0.5 0.1 0.5
v 0.5 0.1 0.4
v 0.5 0.1 0.2
v 0.5 0.1 -0.6
v 0.5 0.1 -0.7
v 0.5 0.2 0.9
v 0.5 0.2 0.8
v 0.5 0.2 -0.6
v 0.5 0.2 -0.7
v 0.5 0.3 0.9
v 0.5 0.3 0.8
v 0.5 0.3 0.7
v 0.5 0.3 0.4
v 0.5 0.3 -0.4
v 0.5 0.3 -0.5
v 0.5 0.3 -0.6
v 0.5 0.4 0.8
v 0.5 0.4 0.7
v 0.5 0.4 0.6
v 0.5 0.4 0.5
v 0.5 0.4 0.4
v 0.5 0.4 0.3
v 0.5 0.4 0.2
v 0.5 0.4 -0.3
v 0.5 0.4 -0.4
v 0.5 0.4 -0.5
v 0.5 0.5 0.8
v 0.5 0.5 0.7
v 0.5 0.5 0.6
v 0.5 0.5 0.5
v 0.5 0.5 -0.1
v 0.5 0.5 -0.3
v 0.5 0.6 0.6
v 0.5 0.6 0.5
v 0.5 0.6 -0.1
v 0.6 0.1 0.7
v 0.6 0.1 0.5
v 0.6 0.1 0.4
v 0.6 0.1 0.2
v 0.6 0.3 0.7
v 0.6 0.3 0.6
v 0.6 0.3 0.4
v 0.6 0.3 0.3
v 0.6 0.4 0.7
v 0.6 0.4 0.6
v 0.6 0.4 0.5
v 0.6 0.4 0.4
v 0.6 0.4 0.3
v 0.6 0.4 0.2
v 0.1 0 0.9
v 0.1 0.3 0.9
v 0.3 0 0.9
v 0.3 0.1 0.9
v 0.4 0.1 0.9
v 0.4 0.2 0.9
v 0.5 0 0.9
v 0.5 0.2 0.9
v 0.5 0.3 0.9
v 0.1 0.3 0.8
v 0.1 0.5 0.8
v 0.4 0.3 0.8
v 0.4 0.4 0.8
v 0.5 0.3 0.8
v 0.5 0.4 0.8
v 0.5 0.5 0.8
v 0.5 0.1 0.7
v 0.5 0.3 0.7
v 0.5 0.4 0.7
v 0.6 0.1 0.7
v 0.6 0.3 0.7
v 0.6 0.4 0.7
v 0.1 0.5 0.6
v 0.1 0.6 0.6
v 0.2 0.5 0.6
v 0.2 0.6 0.6
v 0.4 0.5 0.6
v 0.5 0.5 0.6
v 0.5 0.6 0.6
v 0.5 0.1 0.4
v 0.5 0.3 0.4
v 0.5 0.4 0.4
v 0.6 0.1 0.4
v 0.6 0.3 0.4
v 0.6 0.4 0.4
v 0.5 0.1 0.5
v 0.5 0.4 0.5
v 0.6 0.1 0.5
v 0.6 0.4 0.5
v 0.5 0.1 0.2
v 0.5 0.4 0.2
v 0.6 0.1 0.2
v 0.6 0.4 0.2
v 0.1 0.5 -0.1
v 0.1 0.6 -0.1
v 0.2 0.5 -0.1
v 0.5 0.5 -0.1
v 0.5 0.6 -0.1
v 0.1 0.4 -0.3
v 0.1 0.5 -0.3
v 0.2 0.4 -0.3
v 0.2 0.5 -0.3
v 0.5 0.4 -0.3
v 0.5 0.5 -0.3
v 0.1 0.3 -0.5
v 0.1 0.4 -0.5
v 0.2 0.3 -0.5
v 0.2 0.4 -0.5
v 0.4 0.3 -0.5
v 0.4 0.4 -0.5
v 0.5 0.3 -0.5
v 0.5 0.4 -0.5
v 0.1 0.2 -0.6
v 0.1 0.3 -0.6
v 0.4 0.2 -0.6
v 0.4 0.3 -0.6
v 0.5 0.2 -0.6
v 0.5 0.3 -0.6
v 0.1 0 -0.7
v 0.1 0.2 -0.7
v 0.4 0 -0.7
v 0.4 0.1 -0.7
v 0.5 0 -0.7
v 0.5 0.1 -0.7
v 0.5 0.2 -0.7
v 0.1 0 0.9
v 0.3 0 0.9
v 0.5 0 0.9
v 0.2 0 0.8
v 0.3 0 0.8
v 0.1 0 0.1
v 0.2 0 0.1
v 0.1 0 -0.5
v 0.2 0 -0.5
v 0.2 0 -0.6
v 0.4 0 -0.6
v 0.1 0 -0.7
v 0.4 0 -0.7
v 0.5 0 -0.7
v 0.5 0.1 0.7
v 0.6 0.1 0.7
v 0.5 0.1 0.5
v 0.6 0.1 0.5
v 0.5 0.1 0.4
v 0.6 0.1 0.4
v 0.5 0.1 0.2
v 0.6 0.1 0.2
v 0.1 0.2 -0.6
v 0.4 0.2 -0.6
v 0.5 0.2 -0.6
v 0.1 0.2 -0.7
v 0.5 0.2 -0.7
v 0.1 0.3 0.9
v 0.5 0.3 0.9
v 0.1 0.3 0.8
v 0.4 0.3 0.8
v 0.5 0.3 0.8
v 0.1 0.3 -0.5
v 0.2 0.3 -0.5
v 0.4 0.3 -0.5
v 0.5 0.3 -0.5
v 0.1 0.3 -0.6
v 0.4 0.3 -0.6
v 0.5 0.3 -0.6
v 0.5 0.4 0.7
v 0.6 0.4 0.7
v 0.5 0.4 0.6
v 0.6 0.4 0.6
v 0.5 0.4 0.5
v 0.6 0.4 0.5
v 0.5 0.4 0.4
v 0.6 0.4 0.4
v 0.5 0.4 0.3
v 0.6 0.4 0.3
v 0.5 0.4 0.2
v 0.6 0.4 0.2
v 0.1 0.4 -0.3
v 0.2 0.4 -0.3
v 0.5 0.4 -0.3
v 0.4 0.4 -0.4
v 0.5 0.4 -0.4
v 0.1 0.4 -0.5
v 0.2 0.4 -0.5
v 0.4 0.4 -0.5
v 0.5 0.4 -0.5
v 0.1 0.5 0.8
v 0.5 0.5 0.8
v 0.4 0.5 0.7
v 0.5 0.5 0.7
v 0.1 0.5 0.6
v 0.2 0.5 0.6
v 0.4 0.5 0.6
v 0.5 0.5 0.6
v 0.1 0.5 -0.1
v 0.2 0.5 -0.1
v 0.5 0.5 -0.1
v 0.1 0.5 -0.3
v 0.2 0.5 -0.3
v 0.5 0.5 -0.3
v 0.1 0.6 0.6
v 0.2 0.6 0.6
v 0.5 0.6 0.6
v 0.1 0.6 0.5
v 0.2 0.6 0.5
v 0.4 0.6 0.5
v 0.5 0.6 0.5
v 0.2 0.6 0.4
v 0.4 0.6 0.4
v 0.1 0.6 0.2
v 0.2 0.6 0.2
v 0.1 0.6 -0.1
v 0.5 0.6 -0.1

# faces
f 5/1/1 2/1/1 1/1/1
f 6/2/1 3/2/1 2/2/1
f 6/1/1 2/1/1 5/1/1
f 7/2/1 3/2/1 6/2/1
f 8/1/1 4/1/1 3/1/1
f 8/2/1 3/2/1 7/2/1
f 9/1/1 4/1/1 8/1/1
f 10/1/1 4/1/1 9/1/1
f 11/1/1 5/1/1 1/1/1
f 12/1/1 5/1/1 11/1/1
f 13/2/1 7/2/1 6/2/1
f 13/2/1 6/2/1 5/2/1
f 14/1/1 8/1/1 7/1/1
f 14/2/1 7/2/1 13/2/1
f 14/1/1 9/1/1 8/1/1
f 15/1/1 9/1/1 14/1/1
f 16/1/1 9/1/1 15/1/1
f 17/1/1 5/1/1 12/1/1
f 18/2/1 13/2/1 5/2/1
f 18/1/1 5/1/1 17/1/1
f 19/1/1 15/1/1 14/1/1
f 19/1/1 14/1/1 13/1/1
f 20/1/1 15/1/1 19/1/1
f 21/1/1 17/1/1 12/1/1
f 22/1/1 17/1/1 21/1/1
f 23/2/1 13/2/1 18/2/1
f 23/2/1 18/2/1 17/2/1
f 24/1/1 19/1/1 13/1/1
f 24/2/1 13/2/1 23/2/1
f 25/1/1 19/1/1 24/1/1
f 26/1/1 19/1/1 25/1/1
f 27/1/1 17/1/1 22/1/1
f 28/2/1 23/2/1 17/2/1
f 28/1/1 17/1/1 27/1/1
f 29/1/1 25/1/1 24/1/1
f 29/2/1 23/2/1 28/2/1
f 29/1/1 24/1/1 23/1/1
f 30/1/1 25/1/1 29/1/1
f 31/2/2 32/2/2 33/2/2
f 33/2/2 32/2/2 34/2/2
f 34/2/2 32/2/2 35/2/2
f 35/2/2 32/2/2 36/2/2
f 36/2/2 32/2/2 37/2/2
f 37/2/2 32/2/2 38/2/2
f 31/2/2 33/2/2 39/2/2
f 39/2/2 33/2/2 40/2/2
f 37/1/2 38/1/2 41/1/2
f 36/2/2 37/2/2 41/2/2
f 41/1/2 38/1/2 42/1/2
f 39/1/2 40/1/2 43/1/2
f 40/2/2 33/2/2 44/2/2
f 43/1/2 40/1/2 44/1/2
f 44/2/2 33/2/2 45/2/2
f 34/2/2 35/2/2 46/2/2
f 36/2/2 41/2/2 47/2/2
f 47/2/2 41/2/2 48/2/2
f 48/2/2 41/2/2 49/2/2
f 44/2/2 45/2/2 50/2/2
f 50/2/2 45/2/2 51/2/2
f 34/2/2 46/2/2 53/2/2
f 53/2/2 46/2/2 54/2/2
f 36/2/2 47/2/2 56/2/2
f 56/2/2 47/2/2 57/2/2
f 47/1/2 48/1/2 58/1/2
f 57/2/2 47/2/2 58/2/2
f 58/1/2 48/1/2 59/1/2
f 50/1/2 51/1/2 60/1/2
f 51/2/2 52/2/2 61/2/2
f 60/1/2 51/1/2 61/1/2
f 56/2/2 57/2/2 61/2/2
f 55/2/2 56/2/2 61/2/2
f 54/2/2 55/2/2 61/2/2
f 53/2/2 54/2/2 61/2/2
f 52/2/2 53/2/2 61/2/2
f 61/2/2 57/2/2 62/2/2
f 62/2/2 57/2/2 63/2/2
f 63/2/2 57/2/2 64/2/2
f 64/2/2 57/2/2 65/2/2
f 62/2/2 63/2/2 66/2/2
f 63/1/2 64/1/2 67/1/2
f 66/2/2 63/2/2 67/2/2
f 67/1/2 64/1/2 68/1/2
f 69/4/2 70/4/2 73/4/2
f 73/4/2 70/4/2 74/4/2
f 71/4/2 72/4/2 75/4/2
f 75/4/2 72/4/2 76/4/2
f 73/3/2 74/3/2 77/3/2
f 74/4/2 70/4/2 78/4/2
f 77/3/2 74/3/2 78/3/2
f 78/4/2 70/4/2 79/4/2
f 75/3/2 76/3/2 80/3/2
f 76/4/2 72/4/2 81/4/2
f 80/3/2 76/3/2 81/3/2
f 81/4/2 72/4/2 82/4/2
f 85/1/3 84/1/3 83/1/3
f 86/1/3 84/1/3 85/1/3
f 87/2/3 86/2/3 85/2/3
f 87/1/3 84/1/3 86/1/3
f 88/1/3 84/1/3 87/1/3
f 89/2/3 87/2/3 85/2/3
f 89/2/3 88/2/3 87/2/3
f 90/1/3 84/1/3 88/1/3
f 90/2/3 88/2/3 89/2/3
f 91/1/3 84/1/3 90/1/3
f 94/1/3 93/1/3 92/1/3
f 95/1/3 93/1/3 94/1/3
f 96/2/3 95/2/3 94/2/3
f 97/1/3 93/1/3 95/1/3
f 97/2/3 95/2/3 96/2/3
f 98/1/3 93/1/3 97/1/3
f 102/4/3 100/4/3 99/4/3
f 103/3/3 101/3/3 100/3/3
f 103/4/3 100/4/3 102/4/3
f 104/3/3 101/3/3 103/3/3
f 107/1/3 106/1/3 105/1/3
f 108/1/3 106/1/3 107/1/3
f 109/2/3 108/2/3 107/2/3
f 110/2/3 108/2/3 109/2/3
f 111/2/3 108/2/3 110/2/3
f 115/4/3 113/4/3 112/4/3
f 116/3/3 114/3/3 113/3/3
f 116/4/3 113/4/3 115/4/3
f 117/3/3 114/3/3 116/3/3
f 118/4/4 119/4/4 120/4/4
f 120/4/4 119/4/4 121/4/4
f 122/4/4 123/4/4 124/4/4
f 124/4/4 123/4/4 125/4/4
f 126/1/4 127/1/4 128/1/4
f 128/1/4 127/1/4 129/1/4
f 129/1/4 127/1/4 130/1/4
f 131/1/4 132/1/4 133/1/4
f 133/1/4 132/1/4 134/1/4
f 133/2/4 134/2/4 135/2/4
f 135/2/4 134/2/4 136/2/4
f 137/1/4 138/1/4 139/1/4
f 139/1/4 138/1/4 140/1/4
f 139/2/4 140/2/4 141/2/4
f 141/2/4 140/2/4 142/2/4
f 141/1/4 142/1/4 143/1/4
f 143/1/4 142/1/4 144/1/4
f 145/1/4 146/1/4 147/1/4
f 147/1/4 146/1/4 148/1/4
f 147/2/4 148/2/4 149/2/4
f 149/2/4 148/2/4 150/2/4
f 151/1/4 152/1/4 153/1/4
f 153/1/4 152/1/4 154/1/4
f 153/2/4 154/2/4 155/2/4
f 154/1/4 152/1/4 156/1/4
f 155/2/4 154/2/4 156/2/4
f 156/1/4 152/1/4 157/1/4
f 161/1/5 159/1/5 158/1/5
f 162/2/5 160/2/5 159/2/5
f 162/1/5 159/1/5 161/1/5
f 163/1/5 161/1/5 158/1/5
f 164/2/5 162/2/5 161/2/5
f 164/1/5 161/1/5 163/1/5
f 165/2/5 164/2/5 163/2/5
f 166/2/5 162/2/5 164/2/5
f 166/2/5 164/2/5 165/2/5
f 167/1/5 166/1/5 165/1/5
f 167/2/5 162/2/5 166/2/5
f 168/2/5 160/2/5 162/2/5
f 168/2/5 162/2/5 167/2/5
f 169/1/5 167/1/5 165/1/5
f 169/1/5 168/1/5 167/1/5
f 170/2/5 160/2/5 168/2/5
f 170/1/5 168/1/5 169/1/5
f 171/2/5 160/2/5 170/2/5
f 174/4/5 173/4/5 172/4/5
f 175/4/5 173/4/5 174/4/5
f 178/4/5 177/4/5 176/4/5
f 179/4/5 177/4/5 178/4/5
f 180/1/6 181/1/6 183/1/6
f 181/1/6 182/1/6 183/1/6
f 183/1/6 182/1/6 184/1/6
f 185/1/6 186/1/6 187/1/6
f 187/1/6 186/1/6 188/1/6
f 188/1/6 186/1/6 189/1/6
f 190/1/6 191/1/6 194/1/6
f 191/1/6 192/1/6 194/1/6
f 192/2/6 193/2/6 195/2/6
f 194/1/6 192/1/6 195/1/6
f 195/2/6 193/2/6 196/2/6
f 197/3/6 198/3/6 199/3/6
f 199/3/6 198/3/6 200/3/6
f 199/4/6 200/4/6 201/4/6
f 201/4/6 200/4/6 202/4/6
f 203/3/6 204/3/6 205/3/6
f 205/3/6 204/3/6 206/3/6
f 205/4/6 206/4/6 207/4/6
f 207/4/6 206/4/6 208/4/6
f 210/2/6 211/2/6 212/2/6
f 212/2/6 211/2/6 213/2/6
f 209/1/6 210/1/6 214/1/6
f 210/2/6 212/2/6 215/2/6
f 214/1/6 210/1/6 215/1/6
f 212/1/6 213/1/6 216/1/6
f 215/2/6 212/2/6 216/2/6
f 216/1/6 213/1/6 217/1/6
f 218/1/6 219/1/6 220/1/6
f 220/1/6 219/1/6 221/1/6
f 218/1/6 220/1/6 222/1/6
f 222/1/6 220/1/6 223/1/6
f 220/2/6 221/2/6 224/2/6
f 223/1/6 220/1/6 224/1/6
f 224/2/6 221/2/6 225/2/6
f 226/1/6 227/1/6 229/1/6
f 227/2/6 228/2/6 230/2/6
f 229/1/6 227/1/6 230/1/6
f 230/2/6 228/2/6 231/2/6
f 232/1/6 233/1/6 235/1/6
f 233/2/6 234/2/6 236/2/6
f 235/1/6 233/1/6 236/1/6
f 236/2/6 234/2/6 237/2/6
f 237/2/6 234/2/6 238/2/6
f 235/2/6 236/2/6 239/2/6
f 236/2/6 237/2/6 239/2/6
f 237/1/6 238/1/6 240/1/6
f 239/2/6 237/2/6 240/2/6
f 235/2/6 239/2/6 241/2/6
f 239/1/6 240/1/6 242/1/6
f 241/2/6 239/2/6 242/2/6
f 241/1/6 242/1/6 243/1/6
f 240/1/6 238/1/6 244/1/6
f 243/1/6 242/1/6 244/1/6
f 242/1/6 240/1/6 244/1/6
