# MagicaVoxel @ Ephtracy

# group
o 

# material
mtllib PopulationSandseople.mtl
usemtl palette

# normals
vn -1 0 0
vn 1 0 0
vn 0 0 1
vn 0 0 -1
vn 0 -1 0
vn 0 1 0

# texcoords
vt 0.0214844 0.5
vt 0.0332031 0.5
vt 0.0683594 0.5
vt 0.603516 0.5
vt 0.767578 0.5
vt 0.876953 0.5
vt 0.958984 0.5
vt 0.978516 0.5
vt 0.994141 0.5

# verts
v -0.5 0 0.2
v -0.5 0 -0.5
v -0.5 0.6 0.2
v -0.5 0.6 0
v -0.5 0.7 0.2
v -0.5 0.7 0
v -0.5 0.7 -0.5
v -0.4 0.7 0.2
v -0.4 0.7 0
v -0.4 0.7 -0.2
v -0.4 0.7 -0.4
v -0.4 0.8 0
v -0.4 0.8 -0.2
v -0.4 0.8 -0.4
v -0.4 0.9 -0.2
v -0.4 0.9 -0.4
v -0.4 1.1 0.2
v -0.4 1.1 -0.4
v -0.3 0.2 -0.5
v -0.3 0.2 -0.6
v -0.3 0.7 -0.4
v -0.3 0.7 -0.5
v -0.3 0.8 -0.4
v -0.3 0.9 -0.4
v -0.3 0.9 -0.6
v -0.3 1.1 0.2
v -0.3 1.1 -0.4
v -0.3 1.2 -0.3
v -0.3 1.2 -0.4
v -0.3 1.3 0.2
v -0.3 1.3 -0.3
v -0.2 0.9 -0.4
v -0.2 0.9 -0.5
v -0.2 1.1 -0.4
v -0.2 1.1 -0.5
v -0.2 1.3 0.1
v -0.2 1.3 -0.2
v -0.2 1.4 0.1
v -0.2 1.4 -0.2
v 0.3 0.7 0.2
v 0.3 0.7 0.1
v 0.3 1.1 0.2
v 0.3 1.1 0.1
v -0.3 0.7 0.2
v -0.3 0.7 0.1
v -0.3 1.1 0.2
v -0.3 1.1 0.1
v 0.2 0.9 -0.4
v 0.2 0.9 -0.5
v 0.2 1.1 -0.4
v 0.2 1.1 -0.5
v 0.2 1.3 0.1
v 0.2 1.3 -0.2
v 0.2 1.4 0.1
v 0.2 1.4 -0.2
v 0.3 0.2 -0.5
v 0.3 0.2 -0.6
v 0.3 0.7 -0.4
v 0.3 0.7 -0.5
v 0.3 0.8 -0.4
v 0.3 0.8 -0.5
v 0.3 0.9 -0.4
v 0.3 0.9 -0.6
v 0.3 1.1 0.2
v 0.3 1.1 -0.4
v 0.3 1.2 -0.3
v 0.3 1.2 -0.4
v 0.3 1.3 0.2
v 0.3 1.3 -0.3
v 0.4 0.7 0.2
v 0.4 0.7 -0.3
v 0.4 0.7 -0.4
v 0.4 0.8 -0.3
v 0.4 0.8 -0.4
v 0.4 1.1 0.2
v 0.4 1.1 -0.4
v 0.5 0 0.2
v 0.5 0 0.1
v 0.5 0 -0.5
v 0.5 0.1 0.2
v 0.5 0.1 0.1
v 0.5 0.1 0
v 0.5 0.2 0.1
v 0.5 0.2 0
v 0.5 0.2 -0.1
v 0.5 0.4 0
v 0.5 0.4 -0.1
v 0.5 0.4 -0.2
v 0.5 0.5 -0.1
v 0.5 0.5 -0.2
v 0.5 0.5 -0.3
v 0.5 0.6 -0.2
v 0.5 0.6 -0.3
v 0.5 0.6 -0.4
v 0.5 0.7 0.2
v 0.5 0.7 -0.3
v 0.5 0.7 -0.4
v 0.5 0.7 -0.5
v -0.5 0 0.2
v -0.5 0.6 0.2
v -0.5 0.7 0.2
v -0.4 0.5 0.2
v -0.4 0.6 0.2
v -0.4 0.7 0.2
v -0.4 1.1 0.2
v -0.3 0.4 0.2
v -0.3 0.5 0.2
v -0.3 0.6 0.2
v -0.3 0.7 0.2
v -0.3 1.1 0.2
v -0.3 1.3 0.2
v -0.2 0.3 0.2
v -0.2 0.4 0.2
v -0.2 0.5 0.2
v 0 0.2 0.2
v 0 0.3 0.2
v 0 0.4 0.2
v 0.2 0.1 0.2
v 0.2 0.2 0.2
v 0.2 0.3 0.2
v 0.3 0.7 0.2
v 0.3 1.1 0.2
v 0.3 1.3 0.2
v 0.4 0 0.2
v 0.4 0.1 0.2
v 0.4 0.2 0.2
v 0.4 0.7 0.2
v 0.4 1.1 0.2
v 0.5 0 0.2
v 0.5 0.1 0.2
v 0.5 0.7 0.2
v -0.3 0.7 0.1
v -0.3 1.1 0.1
v -0.2 0.9 0.1
v -0.2 1 0.1
v -0.2 1.3 0.1
v -0.2 1.4 0.1
v -0.1 0.9 0.1
v -0.1 1 0.1
v 0.1 0.9 0.1
v 0.1 1 0.1
v 0.2 0.9 0.1
v 0.2 1 0.1
v 0.2 1.3 0.1
v 0.2 1.4 0.1
v 0.3 0.7 0.1
v 0.3 1.1 0.1
v -0.2 1.3 -0.2
v -0.2 1.4 -0.2
v 0.2 1.3 -0.2
v 0.2 1.4 -0.2
v -0.3 1.2 -0.3
v -0.3 1.3 -0.3
v 0.3 1.2 -0.3
v 0.3 1.3 -0.3
v -0.4 0.7 -0.4
v -0.4 0.8 -0.4
v -0.4 0.9 -0.4
v -0.4 1.1 -0.4
v -0.3 0.7 -0.4
v -0.3 0.8 -0.4
v -0.3 0.9 -0.4
v -0.3 1.1 -0.4
v -0.3 1.2 -0.4
v -0.2 0.9 -0.4
v -0.2 1.1 -0.4
v 0.2 0.9 -0.4
v 0.2 1.1 -0.4
v 0.3 0.7 -0.4
v 0.3 0.8 -0.4
v 0.3 0.9 -0.4
v 0.3 1.1 -0.4
v 0.3 1.2 -0.4
v 0.4 0.7 -0.4
v 0.4 0.8 -0.4
v 0.4 1.1 -0.4
v -0.5 0 -0.5
v -0.5 0.7 -0.5
v -0.3 0.2 -0.5
v -0.3 0.7 -0.5
v -0.2 0.9 -0.5
v -0.2 1.1 -0.5
v 0.2 0.9 -0.5
v 0.2 1.1 -0.5
v 0.3 0.2 -0.5
v 0.3 0.7 -0.5
v 0.5 0 -0.5
v 0.5 0.7 -0.5
v -0.3 0.2 -0.6
v -0.3 0.9 -0.6
v 0.3 0.2 -0.6
v 0.3 0.9 -0.6
v -0.5 0 0.2
v 0.4 0 0.2
v 0.5 0 0.2
v 0.4 0 0.1
v 0.5 0 0.1
v -0.5 0 -0.5
v 0.5 0 -0.5
v -0.3 0.2 -0.5
v 0.3 0.2 -0.5
v -0.3 0.2 -0.6
v 0.3 0.2 -0.6
v -0.3 1.1 0.2
v 0.3 1.1 0.2
v -0.3 1.1 0.1
v 0.3 1.1 0.1
v -0.5 0.7 0.2
v -0.4 0.7 0.2
v -0.3 0.7 0.2
v 0.3 0.7 0.2
v 0.4 0.7 0.2
v 0.5 0.7 0.2
v -0.3 0.7 0.1
v 0.3 0.7 0.1
v -0.5 0.7 0
v -0.4 0.7 0
v -0.4 0.7 -0.2
v 0.4 0.7 -0.3
v 0.5 0.7 -0.3
v -0.4 0.7 -0.4
v -0.3 0.7 -0.4
v 0.3 0.7 -0.4
v 0.4 0.7 -0.4
v 0.5 0.7 -0.4
v -0.5 0.7 -0.5
v -0.3 0.7 -0.5
v 0.3 0.7 -0.5
v 0.5 0.7 -0.5
v -0.3 0.9 -0.4
v -0.2 0.9 -0.4
v 0.2 0.9 -0.4
v 0.3 0.9 -0.4
v -0.2 0.9 -0.5
v 0.2 0.9 -0.5
v -0.3 0.9 -0.6
v 0.3 0.9 -0.6
v -0.4 1.1 0.2
v -0.3 1.1 0.2
v 0.3 1.1 0.2
v 0.4 1.1 0.2
v -0.4 1.1 -0.4
v -0.3 1.1 -0.4
v -0.2 1.1 -0.4
v 0.2 1.1 -0.4
v 0.3 1.1 -0.4
v 0.4 1.1 -0.4
v -0.2 1.1 -0.5
v 0.2 1.1 -0.5
v -0.3 1.2 -0.3
v 0.3 1.2 -0.3
v -0.3 1.2 -0.4
v 0.3 1.2 -0.4
v -0.3 1.3 0.2
v 0.3 1.3 0.2
v -0.2 1.3 0.1
v 0.2 1.3 0.1
v -0.2 1.3 -0.2
v 0.2 1.3 -0.2
v -0.3 1.3 -0.3
v 0.3 1.3 -0.3
v -0.2 1.4 0.1
v 0.2 1.4 0.1
v -0.2 1.4 -0.2
v 0.2 1.4 -0.2

# faces
f 3/3/1 2/3/1 1/3/1
f 4/3/1 2/3/1 3/3/1
f 5/9/1 4/9/1 3/9/1
f 6/3/1 2/3/1 4/3/1
f 6/9/1 4/9/1 5/9/1
f 7/3/1 2/3/1 6/3/1
f 12/3/1 9/3/1 8/3/1
f 12/9/1 10/9/1 9/9/1
f 13/3/1 11/3/1 10/3/1
f 13/9/1 10/9/1 12/9/1
f 14/3/1 11/3/1 13/3/1
f 15/3/1 13/3/1 12/3/1
f 15/9/1 14/9/1 13/9/1
f 16/9/1 14/9/1 15/9/1
f 17/3/1 12/3/1 8/3/1
f 17/3/1 15/3/1 12/3/1
f 17/3/1 16/3/1 15/3/1
f 18/3/1 16/3/1 17/3/1
f 22/9/1 20/9/1 19/9/1
f 23/9/1 22/9/1 21/9/1
f 24/9/1 22/9/1 23/9/1
f 25/9/1 20/9/1 22/9/1
f 25/9/1 22/9/1 24/9/1
f 28/3/1 27/3/1 26/3/1
f 29/3/1 27/3/1 28/3/1
f 30/3/1 28/3/1 26/3/1
f 31/3/1 28/3/1 30/3/1
f 34/3/1 33/3/1 32/3/1
f 35/3/1 33/3/1 34/3/1
f 38/3/1 37/3/1 36/3/1
f 39/3/1 37/3/1 38/3/1
f 42/3/1 41/3/1 40/3/1
f 43/3/1 41/3/1 42/3/1
f 44/3/2 45/3/2 46/3/2
f 46/3/2 45/3/2 47/3/2
f 48/3/2 49/3/2 50/3/2
f 50/3/2 49/3/2 51/3/2
f 52/3/2 53/3/2 54/3/2
f 54/3/2 53/3/2 55/3/2
f 56/9/2 57/9/2 59/9/2
f 58/3/2 59/3/2 60/3/2
f 59/9/2 57/9/2 61/9/2
f 60/3/2 59/3/2 61/3/2
f 60/9/2 61/9/2 62/9/2
f 61/9/2 57/9/2 63/9/2
f 62/9/2 61/9/2 63/9/2
f 64/3/2 65/3/2 66/3/2
f 66/3/2 65/3/2 67/3/2
f 64/3/2 66/3/2 68/3/2
f 68/3/2 66/3/2 69/3/2
f 70/3/2 71/3/2 73/3/2
f 71/9/2 72/9/2 73/9/2
f 73/9/2 72/9/2 74/9/2
f 70/3/2 73/3/2 75/3/2
f 73/3/2 74/3/2 75/3/2
f 75/3/2 74/3/2 76/3/2
f 77/9/2 78/9/2 80/9/2
f 78/3/2 79/3/2 81/3/2
f 80/9/2 78/9/2 81/9/2
f 81/3/2 79/3/2 82/3/2
f 80/3/2 81/3/2 83/3/2
f 81/9/2 82/9/2 83/9/2
f 82/3/2 79/3/2 84/3/2
f 83/9/2 82/9/2 84/9/2
f 84/3/2 79/3/2 85/3/2
f 83/3/2 84/3/2 86/3/2
f 84/9/2 85/9/2 86/9/2
f 85/3/2 79/3/2 87/3/2
f 86/9/2 85/9/2 87/9/2
f 87/3/2 79/3/2 88/3/2
f 86/3/2 87/3/2 89/3/2
f 87/9/2 88/9/2 89/9/2
f 88/3/2 79/3/2 90/3/2
f 89/9/2 88/9/2 90/9/2
f 90/3/2 79/3/2 91/3/2
f 89/3/2 90/3/2 92/3/2
f 90/9/2 91/9/2 92/9/2
f 91/3/2 79/3/2 93/3/2
f 92/9/2 91/9/2 93/9/2
f 93/3/2 79/3/2 94/3/2
f 80/3/2 83/3/2 95/3/2
f 83/3/2 86/3/2 95/3/2
f 86/3/2 89/3/2 95/3/2
f 92/3/2 93/3/2 95/3/2
f 89/3/2 92/3/2 95/3/2
f 93/9/2 94/9/2 96/9/2
f 95/3/2 93/3/2 96/3/2
f 94/3/2 79/3/2 97/3/2
f 96/9/2 94/9/2 97/9/2
f 97/3/2 79/3/2 98/3/2
f 102/3/3 100/3/3 99/3/3
f 103/9/3 101/9/3 100/9/3
f 103/3/3 100/3/3 102/3/3
f 104/9/3 101/9/3 103/9/3
f 106/3/3 102/3/3 99/3/3
f 107/9/3 103/9/3 102/9/3
f 107/3/3 102/3/3 106/3/3
f 108/3/3 105/3/3 104/3/3
f 108/9/3 103/9/3 107/9/3
f 108/3/3 104/3/3 103/3/3
f 109/3/3 105/3/3 108/3/3
f 110/3/3 105/3/3 109/3/3
f 112/3/3 106/3/3 99/3/3
f 113/9/3 107/9/3 106/9/3
f 113/3/3 106/3/3 112/3/3
f 114/3/3 108/3/3 107/3/3
f 114/9/3 107/9/3 113/9/3
f 114/3/3 109/3/3 108/3/3
f 115/3/3 112/3/3 99/3/3
f 116/9/3 113/9/3 112/9/3
f 116/3/3 112/3/3 115/3/3
f 117/3/3 114/3/3 113/3/3
f 117/9/3 113/9/3 116/9/3
f 118/3/3 115/3/3 99/3/3
f 119/9/3 116/9/3 115/9/3
f 119/3/3 115/3/3 118/3/3
f 120/3/3 117/3/3 116/3/3
f 120/9/3 116/9/3 119/9/3
f 121/3/3 109/3/3 114/3/3
f 121/3/3 117/3/3 120/3/3
f 121/3/3 120/3/3 119/3/3
f 121/3/3 114/3/3 117/3/3
f 122/3/3 111/3/3 110/3/3
f 123/3/3 111/3/3 122/3/3
f 124/3/3 118/3/3 99/3/3
f 125/9/3 119/9/3 118/9/3
f 125/3/3 118/3/3 124/3/3
f 126/3/3 121/3/3 119/3/3
f 126/9/3 119/9/3 125/9/3
f 126/3/3 122/3/3 121/3/3
f 127/3/3 122/3/3 126/3/3
f 128/3/3 122/3/3 127/3/3
f 129/9/3 125/9/3 124/9/3
f 130/3/3 126/3/3 125/3/3
f 130/9/3 125/9/3 129/9/3
f 130/3/3 127/3/3 126/3/3
f 131/3/3 127/3/3 130/3/3
f 134/6/3 133/6/3 132/6/3
f 135/6/3 133/6/3 134/6/3
f 138/6/3 134/6/3 132/6/3
f 138/1/3 135/1/3 134/1/3
f 139/6/3 133/6/3 135/6/3
f 139/1/3 135/1/3 138/1/3
f 140/6/3 138/6/3 132/6/3
f 140/6/3 139/6/3 138/6/3
f 141/6/3 133/6/3 139/6/3
f 141/6/3 139/6/3 140/6/3
f 142/6/3 140/6/3 132/6/3
f 142/1/3 141/1/3 140/1/3
f 143/6/3 133/6/3 141/6/3
f 143/1/3 141/1/3 142/1/3
f 144/3/3 137/3/3 136/3/3
f 145/3/3 137/3/3 144/3/3
f 146/6/3 142/6/3 132/6/3
f 146/6/3 143/6/3 142/6/3
f 147/6/3 133/6/3 143/6/3
f 147/6/3 143/6/3 146/6/3
f 148/3/4 149/3/4 150/3/4
f 150/3/4 149/3/4 151/3/4
f 152/3/4 153/3/4 154/3/4
f 154/3/4 153/3/4 155/3/4
f 156/3/4 157/3/4 160/3/4
f 157/9/4 158/9/4 161/9/4
f 160/3/4 157/3/4 161/3/4
f 158/3/4 159/3/4 162/3/4
f 161/9/4 158/9/4 162/9/4
f 162/3/4 159/3/4 163/3/4
f 163/3/4 164/3/4 165/3/4
f 162/3/4 163/3/4 165/3/4
f 165/3/4 164/3/4 166/3/4
f 166/3/4 164/3/4 168/3/4
f 167/3/4 168/3/4 171/3/4
f 168/3/4 164/3/4 172/3/4
f 171/3/4 168/3/4 172/3/4
f 172/3/4 164/3/4 173/3/4
f 169/9/4 170/9/4 174/9/4
f 170/3/4 171/3/4 175/3/4
f 174/9/4 170/9/4 175/9/4
f 171/3/4 172/3/4 175/3/4
f 175/3/4 172/3/4 176/3/4
f 177/3/4 178/3/4 179/3/4
f 179/3/4 178/3/4 180/3/4
f 181/3/4 182/3/4 183/3/4
f 183/3/4 182/3/4 184/3/4
f 177/3/4 179/3/4 185/3/4
f 177/3/4 185/3/4 187/3/4
f 185/3/4 186/3/4 187/3/4
f 187/3/4 186/3/4 188/3/4
f 189/9/4 190/9/4 191/9/4
f 191/9/4 190/9/4 192/9/4
f 196/3/5 194/3/5 193/3/5
f 196/9/5 195/9/5 194/9/5
f 197/9/5 195/9/5 196/9/5
f 198/3/5 196/3/5 193/3/5
f 198/3/5 197/3/5 196/3/5
f 199/3/5 197/3/5 198/3/5
f 202/9/5 201/9/5 200/9/5
f 203/9/5 201/9/5 202/9/5
f 206/3/5 205/3/5 204/3/5
f 207/3/5 205/3/5 206/3/5
f 210/3/6 211/3/6 214/3/6
f 214/3/6 211/3/6 215/3/6
f 208/9/6 209/9/6 216/9/6
f 216/9/6 209/9/6 217/9/6
f 216/3/6 217/3/6 218/3/6
f 212/3/6 213/3/6 219/3/6
f 219/3/6 213/3/6 220/3/6
f 216/3/6 218/3/6 221/3/6
f 219/9/6 220/9/6 224/9/6
f 224/9/6 220/9/6 225/9/6
f 221/3/6 222/3/6 226/3/6
f 216/3/6 221/3/6 226/3/6
f 226/3/6 222/3/6 227/3/6
f 224/3/6 225/3/6 228/3/6
f 223/3/6 224/3/6 228/3/6
f 228/3/6 225/3/6 229/3/6
f 230/9/6 231/9/6 234/9/6
f 232/9/6 233/9/6 235/9/6
f 230/9/6 234/9/6 236/9/6
f 234/9/6 235/9/6 236/9/6
f 235/9/6 233/9/6 237/9/6
f 236/9/6 235/9/6 237/9/6
f 238/3/6 239/3/6 242/3/6
f 242/3/6 239/3/6 243/3/6
f 240/3/6 241/3/6 246/3/6
f 246/3/6 241/3/6 247/3/6
f 244/3/6 245/3/6 248/3/6
f 248/3/6 245/3/6 249/3/6
f 250/3/6 251/3/6 252/3/6
f 252/3/6 251/3/6 253/3/6
f 254/3/6 255/3/6 256/3/6
f 256/3/6 255/3/6 257/3/6
f 254/3/6 256/3/6 258/3/6
f 257/3/6 255/3/6 259/3/6
f 254/3/6 258/3/6 260/3/6
f 258/3/6 259/3/6 260/3/6
f 259/3/6 255/3/6 261/3/6
f 260/3/6 259/3/6 261/3/6
f 262/3/6 263/3/6 264/3/6
f 264/3/6 263/3/6 265/3/6
