# MagicaVoxel @ Ephtracy

# group
o 

# material
mtllib PopulationRomoto1.mtl
usemtl palette

# normals
vn -1 0 0
vn 1 0 0
vn 0 0 1
vn 0 0 -1
vn 0 -1 0
vn 0 1 0

# texcoords
vt 0.00195313 0.5
vt 0.0332031 0.5
vt 0.0644531 0.5
vt 0.0683594 0.5
vt 0.369141 0.5
vt 0.486328 0.5
vt 0.603516 0.5
vt 0.607422 0.5
vt 0.623047 0.5
vt 0.767578 0.5
vt 0.958984 0.5
vt 0.970703 0.5
vt 0.974609 0.5
vt 0.978516 0.5
vt 0.994141 0.5

# verts
v -0.5 0.3 0
v -0.5 0.3 -0.1
v -0.5 0.5 0
v -0.5 0.5 -0.1
v -0.4 0 0.2
v -0.4 0 -0.5
v -0.4 0.3 0
v -0.4 0.3 -0.1
v -0.4 0.5 0
v -0.4 0.5 -0.1
v -0.4 0.6 0
v -0.4 0.6 -0.1
v -0.4 0.7 0.2
v -0.4 0.7 -0.5
v -0.3 0 -0.5
v -0.3 0 -0.6
v -0.3 0.7 0.2
v -0.3 0.7 0.1
v -0.3 0.7 -0.3
v -0.3 0.7 -0.5
v -0.3 0.9 -0.3
v -0.3 0.9 -0.4
v -0.3 0.9 -0.6
v -0.3 1.2 0.2
v -0.3 1.2 0.1
v -0.3 1.2 -0.3
v -0.3 1.2 -0.4
v -0.3 1.3 0.2
v -0.3 1.3 -0.3
v -0.2 0.9 -0.4
v -0.2 0.9 -0.5
v -0.2 1.1 -0.4
v -0.2 1.1 -0.5
v -0.2 1.3 0.1
v -0.2 1.3 -0.2
v -0.2 1.4 0.1
v -0.2 1.4 -0.2
v 0.2 0.7 0.2
v 0.2 0.7 0.1
v 0.2 0.8 0.1
v 0.2 0.9 0.1
v 0.2 1.1 0.2
v 0.2 1.1 0.1
v -0.2 0.7 0.2
v -0.2 0.7 0.1
v -0.2 0.8 0.1
v -0.2 0.9 0.1
v -0.2 1.1 0.2
v -0.2 1.1 0.1
v 0.2 0.9 -0.4
v 0.2 0.9 -0.5
v 0.2 1.1 -0.4
v 0.2 1.1 -0.5
v 0.2 1.3 0.1
v 0.2 1.3 -0.2
v 0.2 1.4 0.1
v 0.2 1.4 -0.2
v 0.3 0 -0.5
v 0.3 0 -0.6
v 0.3 0.7 0.2
v 0.3 0.7 0.1
v 0.3 0.7 -0.3
v 0.3 0.7 -0.5
v 0.3 0.9 -0.3
v 0.3 0.9 -0.4
v 0.3 0.9 -0.6
v 0.3 1.2 0.2
v 0.3 1.2 0.1
v 0.3 1.2 -0.3
v 0.3 1.2 -0.4
v 0.3 1.3 0.2
v 0.3 1.3 -0.3
v 0.4 0 0.2
v 0.4 0 -0.5
v 0.4 0.3 0
v 0.4 0.3 -0.1
v 0.4 0.5 0
v 0.4 0.5 -0.1
v 0.4 0.6 0
v 0.4 0.6 -0.1
v 0.4 0.7 0.2
v 0.4 0.7 -0.5
v 0.5 0.3 0
v 0.5 0.3 -0.1
v 0.5 0.5 0
v 0.5 0.5 -0.1
v -0.4 0 0.2
v -0.4 0.7 0.2
v -0.3 0.3 0.2
v -0.3 0.4 0.2
v -0.3 0.5 0.2
v -0.3 0.6 0.2
v -0.3 0.7 0.2
v -0.3 1.2 0.2
v -0.3 1.3 0.2
v -0.2 0.4 0.2
v -0.2 0.5 0.2
v -0.2 0.6 0.2
v -0.2 0.7 0.2
v -0.2 1.1 0.2
v -0.1 0.4 0.2
v -0.1 0.5 0.2
v -0.1 0.6 0.2
v 0 0.3 0.2
v 0 0.4 0.2
v 0 0.5 0.2
v 0 0.6 0.2
v 0.1 0.3 0.2
v 0.1 0.4 0.2
v 0.1 0.5 0.2
v 0.1 0.6 0.2
v 0.2 0.3 0.2
v 0.2 0.4 0.2
v 0.2 0.5 0.2
v 0.2 0.6 0.2
v 0.2 0.7 0.2
v 0.2 1.1 0.2
v 0.3 0.3 0.2
v 0.3 0.4 0.2
v 0.3 0.5 0.2
v 0.3 0.6 0.2
v 0.3 0.7 0.2
v 0.3 1.2 0.2
v 0.3 1.3 0.2
v 0.4 0 0.2
v 0.4 0.7 0.2
v -0.2 0.7 0.1
v -0.2 0.8 0.1
v -0.2 0.9 0.1
v -0.2 1.1 0.1
v -0.2 1.3 0.1
v -0.2 1.4 0.1
v -0.1 0.8 0.1
v -0.1 0.9 0.1
v -0.1 1.3 0.1
v -0.1 1.4 0.1
v 0.1 0.8 0.1
v 0.1 0.9 0.1
v 0.2 0.7 0.1
v 0.2 0.8 0.1
v 0.2 0.9 0.1
v 0.2 1.1 0.1
v 0.2 1.3 0.1
v 0.2 1.4 0.1
v -0.5 0.3 0
v -0.5 0.5 0
v -0.4 0.3 0
v -0.4 0.5 0
v 0.4 0.3 0
v 0.4 0.5 0
v 0.5 0.3 0
v 0.5 0.5 0
v -0.5 0.3 -0.1
v -0.5 0.5 -0.1
v -0.4 0.3 -0.1
v -0.4 0.5 -0.1
v 0.4 0.3 -0.1
v 0.4 0.5 -0.1
v 0.5 0.3 -0.1
v 0.5 0.5 -0.1
v -0.2 1.3 -0.2
v -0.2 1.4 -0.2
v -0.1 1.3 -0.2
v -0.1 1.4 -0.2
v 0.2 1.3 -0.2
v 0.2 1.4 -0.2
v -0.3 1.2 -0.3
v -0.3 1.3 -0.3
v 0.3 1.2 -0.3
v 0.3 1.3 -0.3
v -0.3 0.9 -0.4
v -0.3 1.2 -0.4
v -0.2 0.9 -0.4
v -0.2 1.1 -0.4
v 0.2 0.9 -0.4
v 0.2 1.1 -0.4
v 0.3 0.9 -0.4
v 0.3 1.2 -0.4
v -0.4 0 -0.5
v -0.4 0.7 -0.5
v -0.3 0 -0.5
v -0.3 0.7 -0.5
v -0.2 0.9 -0.5
v -0.2 1.1 -0.5
v 0.2 0.9 -0.5
v 0.2 1.1 -0.5
v 0.3 0 -0.5
v 0.3 0.7 -0.5
v 0.4 0 -0.5
v 0.4 0.7 -0.5
v -0.3 0 -0.6
v -0.3 0.9 -0.6
v 0.3 0 -0.6
v 0.3 0.9 -0.6
v -0.4 0 0.2
v 0.4 0 0.2
v -0.3 0 0.1
v 0.3 0 0.1
v -0.2 0 0
v -0.1 0 0
v 0.1 0 0
v 0.2 0 0
v -0.2 0 -0.1
v -0.1 0 -0.1
v 0.1 0 -0.1
v 0.2 0 -0.1
v -0.3 0 -0.2
v 0.3 0 -0.2
v -0.4 0 -0.5
v -0.3 0 -0.5
v 0.3 0 -0.5
v 0.4 0 -0.5
v -0.3 0 -0.6
v 0.3 0 -0.6
v -0.5 0.3 0
v -0.4 0.3 0
v 0.4 0.3 0
v 0.5 0.3 0
v -0.5 0.3 -0.1
v -0.4 0.3 -0.1
v 0.4 0.3 -0.1
v 0.5 0.3 -0.1
v -0.2 1.1 0.2
v 0.2 1.1 0.2
v -0.2 1.1 0.1
v 0.2 1.1 0.1
v -0.5 0.5 0
v -0.4 0.5 0
v 0.4 0.5 0
v 0.5 0.5 0
v -0.5 0.5 -0.1
v -0.4 0.5 -0.1
v 0.4 0.5 -0.1
v 0.5 0.5 -0.1
v -0.4 0.7 0.2
v -0.3 0.7 0.2
v -0.2 0.7 0.2
v 0.2 0.7 0.2
v 0.3 0.7 0.2
v 0.4 0.7 0.2
v -0.3 0.7 0.1
v -0.2 0.7 0.1
v 0.2 0.7 0.1
v 0.3 0.7 0.1
v -0.3 0.7 -0.3
v 0.3 0.7 -0.3
v -0.4 0.7 -0.5
v -0.3 0.7 -0.5
v 0.3 0.7 -0.5
v 0.4 0.7 -0.5
v -0.3 0.9 -0.4
v -0.2 0.9 -0.4
v 0.2 0.9 -0.4
v 0.3 0.9 -0.4
v -0.2 0.9 -0.5
v 0.2 0.9 -0.5
v -0.3 0.9 -0.6
v 0.3 0.9 -0.6
v -0.2 1.1 -0.4
v 0.2 1.1 -0.4
v -0.2 1.1 -0.5
v 0.2 1.1 -0.5
v -0.3 1.2 -0.3
v 0.3 1.2 -0.3
v -0.3 1.2 -0.4
v 0.3 1.2 -0.4
v -0.3 1.3 0.2
v 0.3 1.3 0.2
v -0.2 1.3 0.1
v -0.1 1.3 0.1
v 0.2 1.3 0.1
v -0.2 1.3 -0.2
v -0.1 1.3 -0.2
v 0.2 1.3 -0.2
v -0.3 1.3 -0.3
v 0.3 1.3 -0.3
v -0.2 1.4 0.1
v -0.1 1.4 0.1
v 0.2 1.4 0.1
v -0.2 1.4 -0.2
v -0.1 1.4 -0.2
v 0.2 1.4 -0.2

# faces
f 3/14/1 2/14/1 1/14/1
f 4/14/1 2/14/1 3/14/1
f 7/1/1 6/1/1 5/1/1
f 8/1/1 6/1/1 7/1/1
f 9/1/1 7/1/1 5/1/1
f 10/1/1 6/1/1 8/1/1
f 11/1/1 9/1/1 5/1/1
f 11/14/1 10/14/1 9/14/1
f 12/1/1 6/1/1 10/1/1
f 12/14/1 10/14/1 11/14/1
f 13/1/1 11/1/1 5/1/1
f 13/1/1 12/1/1 11/1/1
f 14/1/1 6/1/1 12/1/1
f 14/1/1 12/1/1 13/1/1
f 20/12/1 16/12/1 15/12/1
f 21/14/1 19/14/1 18/14/1
f 21/12/1 20/12/1 19/12/1
f 22/12/1 20/12/1 21/12/1
f 23/12/1 16/12/1 20/12/1
f 23/12/1 20/12/1 22/12/1
f 24/11/1 18/11/1 17/11/1
f 25/14/1 22/14/1 21/14/1
f 25/11/1 18/11/1 24/11/1
f 25/14/1 21/14/1 18/14/1
f 26/14/1 22/14/1 25/14/1
f 27/14/1 22/14/1 26/14/1
f 28/13/1 25/13/1 24/13/1
f 28/13/1 26/13/1 25/13/1
f 29/13/1 26/13/1 28/13/1
f 32/14/1 31/14/1 30/14/1
f 33/14/1 31/14/1 32/14/1
f 36/14/1 35/14/1 34/14/1
f 37/14/1 35/14/1 36/14/1
f 40/11/1 39/11/1 38/11/1
f 41/11/1 40/11/1 38/11/1
f 42/11/1 41/11/1 38/11/1
f 43/11/1 41/11/1 42/11/1
f 44/11/2 45/11/2 46/11/2
f 44/11/2 46/11/2 47/11/2
f 44/11/2 47/11/2 48/11/2
f 48/11/2 47/11/2 49/11/2
f 50/14/2 51/14/2 52/14/2
f 52/14/2 51/14/2 53/14/2
f 54/13/2 55/13/2 56/13/2
f 56/13/2 55/13/2 57/13/2
f 58/12/2 59/12/2 63/12/2
f 61/14/2 62/14/2 64/14/2
f 62/12/2 63/12/2 64/12/2
f 64/12/2 63/12/2 65/12/2
f 63/12/2 59/12/2 66/12/2
f 65/12/2 63/12/2 66/12/2
f 60/11/2 61/11/2 67/11/2
f 64/14/2 65/14/2 68/14/2
f 67/11/2 61/11/2 68/11/2
f 61/14/2 64/14/2 68/14/2
f 68/14/2 65/14/2 69/14/2
f 69/14/2 65/14/2 70/14/2
f 67/13/2 68/13/2 71/13/2
f 68/13/2 69/13/2 71/13/2
f 71/13/2 69/13/2 72/13/2
f 73/1/2 74/1/2 75/1/2
f 75/1/2 74/1/2 76/1/2
f 73/1/2 75/1/2 77/1/2
f 76/1/2 74/1/2 78/1/2
f 73/1/2 77/1/2 79/1/2
f 77/14/2 78/14/2 79/14/2
f 78/1/2 74/1/2 80/1/2
f 79/14/2 78/14/2 80/14/2
f 73/1/2 79/1/2 81/1/2
f 79/1/2 80/1/2 81/1/2
f 80/1/2 74/1/2 82/1/2
f 81/1/2 80/1/2 82/1/2
f 83/14/2 84/14/2 85/14/2
f 85/14/2 84/14/2 86/14/2
f 89/1/3 88/1/3 87/1/3
f 90/1/3 88/1/3 89/1/3
f 91/1/3 88/1/3 90/1/3
f 92/1/3 88/1/3 91/1/3
f 93/1/3 88/1/3 92/1/3
f 96/10/3 90/10/3 89/10/3
f 96/7/3 91/7/3 90/7/3
f 97/10/3 92/10/3 91/10/3
f 97/7/3 91/7/3 96/7/3
f 98/1/3 93/1/3 92/1/3
f 98/10/3 92/10/3 97/10/3
f 99/11/3 94/11/3 93/11/3
f 99/1/3 93/1/3 98/1/3
f 100/11/3 94/11/3 99/11/3
f 101/10/3 96/10/3 89/10/3
f 101/10/3 97/10/3 96/10/3
f 102/7/3 98/7/3 97/7/3
f 102/10/3 97/10/3 101/10/3
f 103/1/3 99/1/3 98/1/3
f 103/7/3 98/7/3 102/7/3
f 104/1/3 89/1/3 87/1/3
f 104/10/3 101/10/3 89/10/3
f 105/7/3 102/7/3 101/7/3
f 105/10/3 101/10/3 104/10/3
f 106/10/3 103/10/3 102/10/3
f 106/7/3 102/7/3 105/7/3
f 107/1/3 99/1/3 103/1/3
f 107/10/3 103/10/3 106/10/3
f 108/7/3 105/7/3 104/7/3
f 108/1/3 104/1/3 87/1/3
f 109/10/3 106/10/3 105/10/3
f 109/7/3 105/7/3 108/7/3
f 110/7/3 107/7/3 106/7/3
f 110/10/3 106/10/3 109/10/3
f 111/1/3 99/1/3 107/1/3
f 111/7/3 107/7/3 110/7/3
f 112/1/3 108/1/3 87/1/3
f 112/10/3 109/10/3 108/10/3
f 113/7/3 110/7/3 109/7/3
f 113/10/3 109/10/3 112/10/3
f 114/10/3 111/10/3 110/10/3
f 114/7/3 110/7/3 113/7/3
f 115/1/3 99/1/3 111/1/3
f 115/10/3 111/10/3 114/10/3
f 116/1/3 99/1/3 115/1/3
f 117/11/3 94/11/3 100/11/3
f 118/1/3 112/1/3 87/1/3
f 118/7/3 113/7/3 112/7/3
f 119/10/3 114/10/3 113/10/3
f 119/7/3 113/7/3 118/7/3
f 120/7/3 115/7/3 114/7/3
f 120/10/3 114/10/3 119/10/3
f 121/1/3 116/1/3 115/1/3
f 121/7/3 115/7/3 120/7/3
f 122/11/3 117/11/3 116/11/3
f 122/1/3 116/1/3 121/1/3
f 123/13/3 95/13/3 94/13/3
f 123/11/3 117/11/3 122/11/3
f 123/11/3 94/11/3 117/11/3
f 124/13/3 95/13/3 123/13/3
f 125/1/3 118/1/3 87/1/3
f 125/1/3 122/1/3 121/1/3
f 125/1/3 119/1/3 118/1/3
f 125/1/3 121/1/3 120/1/3
f 125/1/3 120/1/3 119/1/3
f 126/1/3 122/1/3 125/1/3
f 133/13/3 128/13/3 127/13/3
f 133/15/3 129/15/3 128/15/3
f 134/13/3 130/13/3 129/13/3
f 134/15/3 129/15/3 133/15/3
f 135/14/3 132/14/3 131/14/3
f 136/14/3 132/14/3 135/14/3
f 137/13/3 133/13/3 127/13/3
f 137/13/3 134/13/3 133/13/3
f 138/13/3 130/13/3 134/13/3
f 138/13/3 134/13/3 137/13/3
f 139/13/3 137/13/3 127/13/3
f 140/15/3 138/15/3 137/15/3
f 140/13/3 137/13/3 139/13/3
f 141/13/3 130/13/3 138/13/3
f 141/15/3 138/15/3 140/15/3
f 142/13/3 130/13/3 141/13/3
f 143/13/3 136/13/3 135/13/3
f 144/13/3 136/13/3 143/13/3
f 147/14/3 146/14/3 145/14/3
f 148/14/3 146/14/3 147/14/3
f 151/14/3 150/14/3 149/14/3
f 152/14/3 150/14/3 151/14/3
f 153/14/4 154/14/4 155/14/4
f 155/14/4 154/14/4 156/14/4
f 157/14/4 158/14/4 159/14/4
f 159/14/4 158/14/4 160/14/4
f 161/14/4 162/14/4 163/14/4
f 163/14/4 162/14/4 164/14/4
f 163/13/4 164/13/4 165/13/4
f 165/13/4 164/13/4 166/13/4
f 167/13/4 168/13/4 169/13/4
f 169/13/4 168/13/4 170/13/4
f 171/14/4 172/14/4 173/14/4
f 173/14/4 172/14/4 174/14/4
f 174/14/4 172/14/4 176/14/4
f 175/14/4 176/14/4 177/14/4
f 176/14/4 172/14/4 178/14/4
f 177/14/4 176/14/4 178/14/4
f 179/1/4 180/1/4 181/1/4
f 181/1/4 180/1/4 182/1/4
f 183/14/4 184/14/4 185/14/4
f 185/14/4 184/14/4 186/14/4
f 187/1/4 188/1/4 189/1/4
f 189/1/4 188/1/4 190/1/4
f 191/12/4 192/12/4 193/12/4
f 193/12/4 192/12/4 194/12/4
f 197/1/5 196/1/5 195/1/5
f 198/1/5 196/1/5 197/1/5
f 199/4/5 198/4/5 197/4/5
f 200/4/5 198/4/5 199/4/5
f 201/4/5 198/4/5 200/4/5
f 202/4/5 198/4/5 201/4/5
f 203/4/5 199/4/5 197/4/5
f 203/5/5 200/5/5 199/5/5
f 204/4/5 201/4/5 200/4/5
f 204/5/5 200/5/5 203/5/5
f 205/5/5 202/5/5 201/5/5
f 205/4/5 201/4/5 204/4/5
f 206/4/5 198/4/5 202/4/5
f 206/5/5 202/5/5 205/5/5
f 207/1/5 197/1/5 195/1/5
f 207/4/5 205/4/5 204/4/5
f 207/4/5 206/4/5 205/4/5
f 207/4/5 203/4/5 197/4/5
f 207/4/5 204/4/5 203/4/5
f 208/4/5 198/4/5 206/4/5
f 208/4/5 206/4/5 207/4/5
f 208/1/5 196/1/5 198/1/5
f 209/1/5 207/1/5 195/1/5
f 210/15/5 208/15/5 207/15/5
f 210/1/5 207/1/5 209/1/5
f 211/1/5 196/1/5 208/1/5
f 211/15/5 208/15/5 210/15/5
f 212/1/5 196/1/5 211/1/5
f 213/12/5 211/12/5 210/12/5
f 214/12/5 211/12/5 213/12/5
f 219/14/5 216/14/5 215/14/5
f 220/14/5 216/14/5 219/14/5
f 221/14/5 218/14/5 217/14/5
f 222/14/5 218/14/5 221/14/5
f 225/11/5 224/11/5 223/11/5
f 226/11/5 224/11/5 225/11/5
f 227/14/6 228/14/6 231/14/6
f 231/14/6 228/14/6 232/14/6
f 229/14/6 230/14/6 233/14/6
f 233/14/6 230/14/6 234/14/6
f 235/1/6 236/1/6 241/1/6
f 237/1/6 238/1/6 242/1/6
f 242/1/6 238/1/6 243/1/6
f 239/1/6 240/1/6 244/1/6
f 235/1/6 241/1/6 245/1/6
f 244/1/6 240/1/6 246/1/6
f 235/1/6 245/1/6 247/1/6
f 247/1/6 245/1/6 248/1/6
f 246/1/6 240/1/6 249/1/6
f 249/1/6 240/1/6 250/1/6
f 251/12/6 252/12/6 255/12/6
f 253/12/6 254/12/6 256/12/6
f 251/12/6 255/12/6 257/12/6
f 255/12/6 256/12/6 257/12/6
f 256/12/6 254/12/6 258/12/6
f 257/12/6 256/12/6 258/12/6
f 259/14/6 260/14/6 261/14/6
f 261/14/6 260/14/6 262/14/6
f 263/14/6 264/14/6 265/14/6
f 265/14/6 264/14/6 266/14/6
f 267/13/6 268/13/6 269/13/6
f 269/13/6 268/13/6 270/13/6
f 270/13/6 268/13/6 271/13/6
f 267/13/6 269/13/6 272/13/6
f 271/13/6 268/13/6 274/13/6
f 272/13/6 273/13/6 275/13/6
f 273/13/6 274/13/6 275/13/6
f 267/13/6 272/13/6 275/13/6
f 274/13/6 268/13/6 276/13/6
f 275/13/6 274/13/6 276/13/6
f 277/14/6 278/14/6 280/14/6
f 278/13/6 279/13/6 281/13/6
f 280/14/6 278/14/6 281/14/6
f 281/13/6 279/13/6 282/13/6
