# MagicaVoxel @ Ephtracy

# group
o 

# material
mtllib PopulationHuman3.mtl
usemtl palette

# normals
vn -1 0 0
vn 1 0 0
vn 0 0 1
vn 0 0 -1
vn 0 -1 0
vn 0 1 0

# texcoords
vt 0.0332031 0.5
vt 0.0683594 0.5
vt 0.958984 0.5
vt 0.994141 0.5

# verts
v -0.4 0.3 -1.49012e-08
v -0.4 0.3 -0.1
v -0.4 0.5 -1.49012e-08
v -0.4 0.5 -0.1
v -0.3 0.5 -1.49012e-08
v -0.3 0.5 -0.1
v -0.3 0.6 -1.49012e-08
v -0.3 0.6 -0.1
v -0.2 0 -1.49012e-08
v -0.2 0 -0.1
v -0.2 0.2 0.1
v -0.2 0.2 -1.49012e-08
v -0.2 0.2 -0.1
v -0.2 0.2 -0.2
v -0.2 0.5 -1.49012e-08
v -0.2 0.5 -0.1
v -0.2 0.6 -1.49012e-08
v -0.2 0.6 -0.1
v -0.2 0.7 0.1
v -0.2 0.7 -0.2
v -0.2 0.8 0.1
v -0.2 0.8 -1.49012e-08
v -0.2 0.9 0.1
v -0.2 0.9 -1.49012e-08
v -0.2 1.1 0.1
v -0.2 1.1 -0.2
v 0.1 0 -1.49012e-08
v 0.1 0 -0.1
v 0.1 0.2 -1.49012e-08
v 0.1 0.2 -0.1
v 0.3 0.3 -1.49012e-08
v 0.3 0.3 -0.1
v 0.3 0.5 -1.49012e-08
v 0.3 0.5 -0.1
v -0.3 0.3 -1.49012e-08
v -0.3 0.3 -0.1
v -0.3 0.5 -1.49012e-08
v -0.3 0.5 -0.1
v -0.1 0 -1.49012e-08
v -0.1 0 -0.1
v -0.1 0.2 -1.49012e-08
v -0.1 0.2 -0.1
v 0.2 0 -1.49012e-08
v 0.2 0 -0.1
v 0.2 0.2 0.1
v 0.2 0.2 -1.49012e-08
v 0.2 0.2 -0.1
v 0.2 0.2 -0.2
v 0.2 0.5 -1.49012e-08
v 0.2 0.5 -0.1
v 0.2 0.6 -1.49012e-08
v 0.2 0.6 -0.1
v 0.2 0.7 0.1
v 0.2 0.7 -0.2
v 0.2 0.8 0.1
v 0.2 0.8 -1.49012e-08
v 0.2 0.9 0.1
v 0.2 0.9 -1.49012e-08
v 0.2 1.1 0.1
v 0.2 1.1 -0.2
v 0.3 0.5 -1.49012e-08
v 0.3 0.5 -0.1
v 0.3 0.6 -1.49012e-08
v 0.3 0.6 -0.1
v 0.4 0.3 -1.49012e-08
v 0.4 0.3 -0.1
v 0.4 0.5 -1.49012e-08
v 0.4 0.5 -0.1
v -0.2 0.2 0.1
v -0.2 0.7 0.1
v -0.2 0.8 0.1
v -0.2 0.9 0.1
v -0.2 1.1 0.1
v -0.1 0.8 0.1
v -0.1 0.9 0.1
v 0.1 0.8 0.1
v 0.1 0.9 0.1
v 0.2 0.2 0.1
v 0.2 0.7 0.1
v 0.2 0.8 0.1
v 0.2 0.9 0.1
v 0.2 1.1 0.1
v -0.4 0.3 -1.49012e-08
v -0.4 0.5 -1.49012e-08
v -0.3 0.3 -1.49012e-08
v -0.3 0.5 -1.49012e-08
v -0.3 0.6 -1.49012e-08
v -0.2 0 -1.49012e-08
v -0.2 0.2 -1.49012e-08
v -0.2 0.5 -1.49012e-08
v -0.2 0.6 -1.49012e-08
v -0.1 0 -1.49012e-08
v -0.1 0.2 -1.49012e-08
v 0.1 0 -1.49012e-08
v 0.1 0.2 -1.49012e-08
v 0.2 0 -1.49012e-08
v 0.2 0.2 -1.49012e-08
v 0.2 0.5 -1.49012e-08
v 0.2 0.6 -1.49012e-08
v 0.3 0.3 -1.49012e-08
v 0.3 0.5 -1.49012e-08
v 0.3 0.6 -1.49012e-08
v 0.4 0.3 -1.49012e-08
v 0.4 0.5 -1.49012e-08
v -0.4 0.3 -0.1
v -0.4 0.5 -0.1
v -0.3 0.3 -0.1
v -0.3 0.5 -0.1
v -0.3 0.6 -0.1
v -0.2 0 -0.1
v -0.2 0.2 -0.1
v -0.2 0.5 -0.1
v -0.2 0.6 -0.1
v -0.1 0 -0.1
v -0.1 0.2 -0.1
v 0.1 0 -0.1
v 0.1 0.2 -0.1
v 0.2 0 -0.1
v 0.2 0.2 -0.1
v 0.2 0.5 -0.1
v 0.2 0.6 -0.1
v 0.3 0.3 -0.1
v 0.3 0.5 -0.1
v 0.3 0.6 -0.1
v 0.4 0.3 -0.1
v 0.4 0.5 -0.1
v -0.2 0.2 -0.2
v -0.2 0.7 -0.2
v -0.2 1.1 -0.2
v 0.2 0.2 -0.2
v 0.2 0.7 -0.2
v 0.2 1.1 -0.2
v -0.2 0 -1.49012e-08
v -0.1 0 -1.49012e-08
v 0.1 0 -1.49012e-08
v 0.2 0 -1.49012e-08
v -0.2 0 -0.1
v -0.1 0 -0.1
v 0.1 0 -0.1
v 0.2 0 -0.1
v -0.2 0.2 0.1
v 0.2 0.2 0.1
v -0.2 0.2 -1.49012e-08
v -0.1 0.2 -1.49012e-08
v 0.1 0.2 -1.49012e-08
v 0.2 0.2 -1.49012e-08
v -0.2 0.2 -0.1
v -0.1 0.2 -0.1
v 0.1 0.2 -0.1
v 0.2 0.2 -0.1
v -0.2 0.2 -0.2
v 0.2 0.2 -0.2
v -0.4 0.3 -1.49012e-08
v -0.3 0.3 -1.49012e-08
v 0.3 0.3 -1.49012e-08
v 0.4 0.3 -1.49012e-08
v -0.4 0.3 -0.1
v -0.3 0.3 -0.1
v 0.3 0.3 -0.1
v 0.4 0.3 -0.1
v -0.3 0.5 -1.49012e-08
v -0.2 0.5 -1.49012e-08
v 0.2 0.5 -1.49012e-08
v 0.3 0.5 -1.49012e-08
v -0.3 0.5 -0.1
v -0.2 0.5 -0.1
v 0.2 0.5 -0.1
v 0.3 0.5 -0.1
v -0.4 0.5 -1.49012e-08
v -0.3 0.5 -1.49012e-08
v 0.3 0.5 -1.49012e-08
v 0.4 0.5 -1.49012e-08
v -0.4 0.5 -0.1
v -0.3 0.5 -0.1
v 0.3 0.5 -0.1
v 0.4 0.5 -0.1
v -0.3 0.6 -1.49012e-08
v -0.2 0.6 -1.49012e-08
v 0.2 0.6 -1.49012e-08
v 0.3 0.6 -1.49012e-08
v -0.3 0.6 -0.1
v -0.2 0.6 -0.1
v 0.2 0.6 -0.1
v 0.3 0.6 -0.1
v -0.2 1.1 0.1
v 0.2 1.1 0.1
v -0.2 1.1 -0.2
v 0.2 1.1 -0.2

# faces
f 3/1/1 2/1/1 1/1/1
f 4/1/1 2/1/1 3/1/1
f 7/1/1 6/1/1 5/1/1
f 8/1/1 6/1/1 7/1/1
f 12/3/1 10/3/1 9/3/1
f 13/3/1 10/3/1 12/3/1
f 15/3/1 12/3/1 11/3/1
f 15/3/1 14/3/1 13/3/1
f 15/3/1 13/3/1 12/3/1
f 16/3/1 14/3/1 15/3/1
f 17/3/1 15/3/1 11/3/1
f 18/3/1 14/3/1 16/3/1
f 19/3/1 17/3/1 11/3/1
f 19/3/1 18/3/1 17/3/1
f 20/3/1 14/3/1 18/3/1
f 20/3/1 18/3/1 19/3/1
f 21/1/1 20/1/1 19/1/1
f 22/1/1 20/1/1 21/1/1
f 23/4/1 22/4/1 21/4/1
f 24/1/1 20/1/1 22/1/1
f 24/4/1 22/4/1 23/4/1
f 25/1/1 24/1/1 23/1/1
f 26/1/1 20/1/1 24/1/1
f 26/1/1 24/1/1 25/1/1
f 29/3/1 28/3/1 27/3/1
f 30/3/1 28/3/1 29/3/1
f 33/1/1 32/1/1 31/1/1
f 34/1/1 32/1/1 33/1/1
f 35/1/2 36/1/2 37/1/2
f 37/1/2 36/1/2 38/1/2
f 39/3/2 40/3/2 41/3/2
f 41/3/2 40/3/2 42/3/2
f 43/3/2 44/3/2 46/3/2
f 46/3/2 44/3/2 47/3/2
f 45/3/2 46/3/2 49/3/2
f 47/3/2 48/3/2 49/3/2
f 46/3/2 47/3/2 49/3/2
f 49/3/2 48/3/2 50/3/2
f 45/3/2 49/3/2 51/3/2
f 50/3/2 48/3/2 52/3/2
f 45/3/2 51/3/2 53/3/2
f 51/3/2 52/3/2 53/3/2
f 52/3/2 48/3/2 54/3/2
f 53/3/2 52/3/2 54/3/2
f 53/1/2 54/1/2 55/1/2
f 55/1/2 54/1/2 56/1/2
f 55/4/2 56/4/2 57/4/2
f 56/1/2 54/1/2 58/1/2
f 57/4/2 56/4/2 58/4/2
f 57/1/2 58/1/2 59/1/2
f 58/1/2 54/1/2 60/1/2
f 59/1/2 58/1/2 60/1/2
f 61/1/2 62/1/2 63/1/2
f 63/1/2 62/1/2 64/1/2
f 65/1/2 66/1/2 67/1/2
f 67/1/2 66/1/2 68/1/2
f 74/1/3 71/1/3 70/1/3
f 74/4/3 72/4/3 71/4/3
f 75/1/3 73/1/3 72/1/3
f 75/4/3 72/4/3 74/4/3
f 76/1/3 74/1/3 70/1/3
f 76/1/3 75/1/3 74/1/3
f 77/1/3 73/1/3 75/1/3
f 77/1/3 75/1/3 76/1/3
f 78/3/3 70/3/3 69/3/3
f 79/1/3 76/1/3 70/1/3
f 79/3/3 70/3/3 78/3/3
f 80/4/3 77/4/3 76/4/3
f 80/1/3 76/1/3 79/1/3
f 81/1/3 73/1/3 77/1/3
f 81/4/3 77/4/3 80/4/3
f 82/1/3 73/1/3 81/1/3
f 85/1/3 84/1/3 83/1/3
f 86/1/3 84/1/3 85/1/3
f 90/1/3 87/1/3 86/1/3
f 91/1/3 87/1/3 90/1/3
f 92/3/3 89/3/3 88/3/3
f 93/3/3 89/3/3 92/3/3
f 96/3/3 95/3/3 94/3/3
f 97/3/3 95/3/3 96/3/3
f 101/1/3 99/1/3 98/1/3
f 102/1/3 99/1/3 101/1/3
f 103/1/3 101/1/3 100/1/3
f 104/1/3 101/1/3 103/1/3
f 105/1/4 106/1/4 107/1/4
f 107/1/4 106/1/4 108/1/4
f 108/1/4 109/1/4 112/1/4
f 112/1/4 109/1/4 113/1/4
f 110/3/4 111/3/4 114/3/4
f 114/3/4 111/3/4 115/3/4
f 116/3/4 117/3/4 118/3/4
f 118/3/4 117/3/4 119/3/4
f 120/1/4 121/1/4 123/1/4
f 123/1/4 121/1/4 124/1/4
f 122/1/4 123/1/4 125/1/4
f 125/1/4 123/1/4 126/1/4
f 127/3/4 128/3/4 130/3/4
f 128/1/4 129/1/4 131/1/4
f 130/3/4 128/3/4 131/3/4
f 131/1/4 129/1/4 132/1/4
f 137/3/5 134/3/5 133/3/5
f 138/3/5 134/3/5 137/3/5
f 139/3/5 136/3/5 135/3/5
f 140/3/5 136/3/5 139/3/5
f 143/3/5 142/3/5 141/3/5
f 144/3/5 142/3/5 143/3/5
f 145/3/5 142/3/5 144/3/5
f 146/3/5 142/3/5 145/3/5
f 148/3/5 145/3/5 144/3/5
f 149/3/5 145/3/5 148/3/5
f 151/3/5 148/3/5 147/3/5
f 151/3/5 150/3/5 149/3/5
f 151/3/5 149/3/5 148/3/5
f 152/3/5 150/3/5 151/3/5
f 157/1/5 154/1/5 153/1/5
f 158/1/5 154/1/5 157/1/5
f 159/1/5 156/1/5 155/1/5
f 160/1/5 156/1/5 159/1/5
f 165/1/5 162/1/5 161/1/5
f 166/1/5 162/1/5 165/1/5
f 167/1/5 164/1/5 163/1/5
f 168/1/5 164/1/5 167/1/5
f 169/1/6 170/1/6 173/1/6
f 173/1/6 170/1/6 174/1/6
f 171/1/6 172/1/6 175/1/6
f 175/1/6 172/1/6 176/1/6
f 177/1/6 178/1/6 181/1/6
f 181/1/6 178/1/6 182/1/6
f 179/1/6 180/1/6 183/1/6
f 183/1/6 180/1/6 184/1/6
f 185/1/6 186/1/6 187/1/6
f 187/1/6 186/1/6 188/1/6
