# MagicaVoxel @ Ephtracy

# group
o 

# material
mtllib ShipHumanSmall.mtl
usemtl palette

# normals
vn -1 0 0
vn 1 0 0
vn 0 0 1
vn 0 0 -1
vn 0 -1 0
vn 0 1 0

# texcoords
vt 0.958984 0.5
vt 0.994141 0.5

# verts
v -0.9 0 0.4
v -0.9 0 -0.6
v -0.9 0.2 0.4
v -0.9 0.2 -0.6
v -0.8 0.2 0.3
v -0.8 0.2 -0.5
v -0.8 0.4 0.3
v -0.8 0.4 -0.5
v -0.7 0.4 0.3
v -0.7 0.4 -0.5
v -0.7 0.5 0.3
v -0.7 0.5 -0.5
v -0.3 0 0.9
v -0.3 0 0.7
v -0.3 0 -0.9
v -0.3 0 -1.1
v -0.3 0.4 0.9
v -0.3 0.4 0.7
v -0.3 0.4 -0.9
v -0.3 0.4 -1.1
v -0.1 0.1 0.7
v -0.1 0.1 0.4
v -0.1 0.1 -0.6
v -0.1 0.1 -0.9
v -0.1 0.2 0.4
v -0.1 0.2 0.3
v -0.1 0.2 -0.5
v -0.1 0.2 -0.6
v -0.1 0.3 0.7
v -0.1 0.3 0.3
v -0.1 0.3 -0.5
v -0.1 0.3 -0.9
v 0.9 0 0.9
v 0.9 0 0.7
v 0.9 0 0.4
v 0.9 0 -0.6
v 0.9 0 -0.9
v 0.9 0 -1.1
v 0.9 0.1 0.7
v 0.9 0.1 0.4
v 0.9 0.1 -0.6
v 0.9 0.1 -0.9
v 0.9 0.3 0.7
v 0.9 0.3 0.3
v 0.9 0.3 -0.5
v 0.9 0.3 -0.9
v 0.9 0.4 0.9
v 0.9 0.4 0.7
v 0.9 0.4 -0.9
v 0.9 0.4 -1.1
v 0.9 0.5 0.3
v 0.9 0.5 -0.5
v -0.3 0 0.9
v -0.3 0.4 0.9
v -0.1 0 0.9
v -0.1 0.4 0.9
v 0.9 0 0.9
v 0.9 0.4 0.9
v -0.9 0 0.4
v -0.9 0.2 0.4
v -0.1 0.1 0.4
v -0.1 0.2 0.4
v 0.9 0 0.4
v 0.9 0.1 0.4
v -0.8 0.2 0.3
v -0.8 0.4 0.3
v -0.7 0.4 0.3
v -0.7 0.5 0.3
v -0.3 0.2 0.3
v -0.3 0.4 0.3
v -0.1 0.2 0.3
v -0.1 0.3 0.3
v 0.9 0.3 0.3
v 0.9 0.5 0.3
v -0.3 0 -0.9
v -0.3 0.4 -0.9
v -0.1 0 -0.9
v -0.1 0.1 -0.9
v -0.1 0.3 -0.9
v -0.1 0.4 -0.9
v 0.9 0 -0.9
v 0.9 0.1 -0.9
v 0.9 0.3 -0.9
v 0.9 0.4 -0.9
v -0.3 0 0.7
v -0.3 0.4 0.7
v -0.1 0 0.7
v -0.1 0.1 0.7
v -0.1 0.3 0.7
v -0.1 0.4 0.7
v 0.9 0 0.7
v 0.9 0.1 0.7
v 0.9 0.3 0.7
v 0.9 0.4 0.7
v -0.8 0.2 -0.5
v -0.8 0.4 -0.5
v -0.7 0.4 -0.5
v -0.7 0.5 -0.5
v -0.3 0.2 -0.5
v -0.3 0.4 -0.5
v -0.1 0.2 -0.5
v -0.1 0.3 -0.5
v 0.9 0.3 -0.5
v 0.9 0.5 -0.5
v -0.9 0 -0.6
v -0.9 0.2 -0.6
v -0.1 0.1 -0.6
v -0.1 0.2 -0.6
v 0.9 0 -0.6
v 0.9 0.1 -0.6
v -0.3 0 -1.1
v -0.3 0.4 -1.1
v -0.1 0 -1.1
v -0.1 0.4 -1.1
v 0.9 0 -1.1
v 0.9 0.4 -1.1
v -0.3 0 0.9
v -0.1 0 0.9
v 0.9 0 0.9
v -0.3 0 0.7
v -0.1 0 0.7
v 0.9 0 0.7
v -0.9 0 0.4
v 0.9 0 0.4
v -0.9 0 -0.6
v 0.9 0 -0.6
v -0.3 0 -0.9
v -0.1 0 -0.9
v 0.9 0 -0.9
v -0.3 0 -1.1
v -0.1 0 -1.1
v 0.9 0 -1.1
v -0.1 0.1 0.7
v 0.9 0.1 0.7
v -0.1 0.1 0.4
v 0.9 0.1 0.4
v -0.1 0.1 -0.6
v 0.9 0.1 -0.6
v -0.1 0.1 -0.9
v 0.9 0.1 -0.9
v -0.9 0.2 0.4
v -0.1 0.2 0.4
v -0.8 0.2 0.3
v -0.3 0.2 0.3
v -0.1 0.2 0.3
v -0.8 0.2 -0.5
v -0.3 0.2 -0.5
v -0.1 0.2 -0.5
v -0.9 0.2 -0.6
v -0.1 0.2 -0.6
v -0.1 0.3 0.7
v 0.9 0.3 0.7
v -0.1 0.3 0.3
v 0.9 0.3 0.3
v -0.1 0.3 -0.5
v 0.9 0.3 -0.5
v -0.1 0.3 -0.9
v 0.9 0.3 -0.9
v -0.3 0.4 0.9
v -0.1 0.4 0.9
v 0.9 0.4 0.9
v -0.3 0.4 0.7
v -0.1 0.4 0.7
v 0.9 0.4 0.7
v -0.8 0.4 0.3
v -0.7 0.4 0.3
v -0.8 0.4 -0.5
v -0.7 0.4 -0.5
v -0.3 0.4 -0.9
v -0.1 0.4 -0.9
v 0.9 0.4 -0.9
v -0.3 0.4 -1.1
v -0.1 0.4 -1.1
v 0.9 0.4 -1.1
v -0.7 0.5 0.3
v 0.9 0.5 0.3
v -0.7 0.5 -0.5
v 0.9 0.5 -0.5

# faces
f 3/1/1 2/1/1 1/1/1
f 4/1/1 2/1/1 3/1/1
f 7/2/1 6/2/1 5/2/1
f 8/2/1 6/2/1 7/2/1
f 11/1/1 10/1/1 9/1/1
f 12/1/1 10/1/1 11/1/1
f 17/2/1 14/2/1 13/2/1
f 18/2/1 14/2/1 17/2/1
f 19/2/1 16/2/1 15/2/1
f 20/2/1 16/2/1 19/2/1
f 25/1/1 22/1/1 21/1/1
f 28/1/1 24/1/1 23/1/1
f 29/1/1 26/1/1 25/1/1
f 29/1/1 25/1/1 21/1/1
f 30/1/1 26/1/1 29/1/1
f 31/1/1 28/1/1 27/1/1
f 32/1/1 24/1/1 28/1/1
f 32/1/1 28/1/1 31/1/1
f 33/1/2 34/1/2 39/1/2
f 35/1/2 36/1/2 40/1/2
f 40/1/2 36/1/2 41/1/2
f 37/1/2 38/1/2 42/1/2
f 40/1/2 41/1/2 43/1/2
f 41/1/2 42/1/2 43/1/2
f 33/1/2 39/1/2 43/1/2
f 39/1/2 40/1/2 43/1/2
f 43/1/2 42/1/2 44/1/2
f 44/1/2 42/1/2 45/1/2
f 42/1/2 38/1/2 46/1/2
f 45/1/2 42/1/2 46/1/2
f 33/1/2 43/1/2 47/1/2
f 47/1/2 43/1/2 48/1/2
f 46/1/2 38/1/2 49/1/2
f 49/1/2 38/1/2 50/1/2
f 44/1/2 45/1/2 51/1/2
f 51/1/2 45/1/2 52/1/2
f 55/2/3 54/2/3 53/2/3
f 56/2/3 54/2/3 55/2/3
f 57/1/3 56/1/3 55/1/3
f 58/1/3 56/1/3 57/1/3
f 61/1/3 60/1/3 59/1/3
f 62/1/3 60/1/3 61/1/3
f 63/1/3 61/1/3 59/1/3
f 64/1/3 61/1/3 63/1/3
f 67/2/3 66/2/3 65/2/3
f 69/2/3 67/2/3 65/2/3
f 70/1/3 68/1/3 67/1/3
f 70/2/3 67/2/3 69/2/3
f 71/1/3 70/1/3 69/1/3
f 72/1/3 70/1/3 71/1/3
f 73/1/3 70/1/3 72/1/3
f 74/1/3 68/1/3 70/1/3
f 74/1/3 70/1/3 73/1/3
f 77/2/3 76/2/3 75/2/3
f 78/2/3 76/2/3 77/2/3
f 79/2/3 76/2/3 78/2/3
f 80/2/3 76/2/3 79/2/3
f 81/1/3 78/1/3 77/1/3
f 82/1/3 78/1/3 81/1/3
f 83/1/3 80/1/3 79/1/3
f 84/1/3 80/1/3 83/1/3
f 85/2/4 86/2/4 87/2/4
f 87/2/4 86/2/4 88/2/4
f 88/2/4 86/2/4 89/2/4
f 89/2/4 86/2/4 90/2/4
f 87/1/4 88/1/4 91/1/4
f 91/1/4 88/1/4 92/1/4
f 89/1/4 90/1/4 93/1/4
f 93/1/4 90/1/4 94/1/4
f 95/2/4 96/2/4 97/2/4
f 95/2/4 97/2/4 99/2/4
f 97/1/4 98/1/4 100/1/4
f 99/2/4 97/2/4 100/2/4
f 99/1/4 100/1/4 101/1/4
f 101/1/4 100/1/4 102/1/4
f 102/1/4 100/1/4 103/1/4
f 100/1/4 98/1/4 104/1/4
f 103/1/4 100/1/4 104/1/4
f 105/1/4 106/1/4 107/1/4
f 107/1/4 106/1/4 108/1/4
f 105/1/4 107/1/4 109/1/4
f 109/1/4 107/1/4 110/1/4
f 111/2/4 112/2/4 113/2/4
f 113/2/4 112/2/4 114/2/4
f 113/1/4 114/1/4 115/1/4
f 115/1/4 114/1/4 116/1/4
f 120/2/5 118/2/5 117/2/5
f 121/1/5 119/1/5 118/1/5
f 121/2/5 118/2/5 120/2/5
f 122/1/5 119/1/5 121/1/5
f 125/1/5 124/1/5 123/1/5
f 126/1/5 124/1/5 125/1/5
f 130/2/5 128/2/5 127/2/5
f 131/1/5 129/1/5 128/1/5
f 131/2/5 128/2/5 130/2/5
f 132/1/5 129/1/5 131/1/5
f 135/1/5 134/1/5 133/1/5
f 136/1/5 134/1/5 135/1/5
f 139/1/5 138/1/5 137/1/5
f 140/1/5 138/1/5 139/1/5
f 141/1/6 142/1/6 143/1/6
f 143/1/6 142/1/6 144/1/6
f 144/1/6 142/1/6 145/1/6
f 141/1/6 143/1/6 146/1/6
f 141/1/6 146/1/6 149/1/6
f 147/1/6 148/1/6 149/1/6
f 146/1/6 147/1/6 149/1/6
f 149/1/6 148/1/6 150/1/6
f 151/1/6 152/1/6 153/1/6
f 153/1/6 152/1/6 154/1/6
f 155/1/6 156/1/6 157/1/6
f 157/1/6 156/1/6 158/1/6
f 159/2/6 160/2/6 162/2/6
f 160/1/6 161/1/6 163/1/6
f 162/2/6 160/2/6 163/2/6
f 163/1/6 161/1/6 164/1/6
f 165/2/6 166/2/6 167/2/6
f 167/2/6 166/2/6 168/2/6
f 169/2/6 170/2/6 172/2/6
f 170/1/6 171/1/6 173/1/6
f 172/2/6 170/2/6 173/2/6
f 173/1/6 171/1/6 174/1/6
f 175/1/6 176/1/6 177/1/6
f 177/1/6 176/1/6 178/1/6
